<mxfile host="65bd71144e">
    <diagram id="j8pm7qa9IiimDFJe2ZHl" name="Page-1">
        <mxGraphModel dx="-131" dy="400" grid="1" gridSize="10" guides="1" tooltips="1" connect="1" arrows="1" fold="1" page="1" pageScale="1" pageWidth="850" pageHeight="1100" math="0" shadow="0">
            <root>
                <mxCell id="0"/>
                <mxCell id="1" parent="0"/>
                <mxCell id="209" value="" style="rounded=0;whiteSpace=wrap;html=1;" parent="1" vertex="1">
                    <mxGeometry x="870" y="50" width="780" height="970" as="geometry"/>
                </mxCell>
                <mxCell id="83" value="" style="rounded=1;whiteSpace=wrap;html=1;strokeColor=#00FFFF;strokeWidth=5;fontSize=12;fontColor=#FFFFFF;fillColor=none;" parent="1" vertex="1">
                    <mxGeometry x="1142" y="160.5" width="470" height="370" as="geometry"/>
                </mxCell>
                <mxCell id="21" value="&lt;font style=&quot;font-size: 12px;&quot; color=&quot;#ffffff&quot;&gt;Remote Administration&lt;/font&gt;" style="text;html=1;strokeColor=none;fillColor=none;align=center;verticalAlign=middle;whiteSpace=wrap;rounded=0;strokeWidth=11;fontSize=30;fontColor=#000000;" parent="1" vertex="1">
                    <mxGeometry x="916.5" y="145.5" width="143.5" height="40" as="geometry"/>
                </mxCell>
                <mxCell id="39" value="" style="sketch=0;points=[[0.5,0,0],[1,0.5,0],[0.5,1,0],[0,0.5,0],[0.145,0.145,0],[0.8555,0.145,0],[0.855,0.8555,0],[0.145,0.855,0]];verticalLabelPosition=bottom;html=1;verticalAlign=top;aspect=fixed;align=center;pointerEvents=1;shape=mxgraph.cisco19.rect;prIcon=router;fillColor=#00ffff;strokeColor=none;strokeWidth=11;fontSize=20;fontColor=#FFFFFF;" parent="1" vertex="1">
                    <mxGeometry x="1130" y="154.5" width="50" height="50" as="geometry"/>
                </mxCell>
                <mxCell id="17" value="PP" style="ellipse;whiteSpace=wrap;html=1;aspect=fixed;strokeWidth=11;fontSize=30;fontColor=#ffffff;fillColor=#a20025;strokeColor=#6F0000;" parent="1" vertex="1">
                    <mxGeometry x="948.25" y="74.5" width="80" height="80" as="geometry"/>
                </mxCell>
                <mxCell id="29" value="" style="sketch=0;pointerEvents=1;shadow=0;dashed=0;html=1;strokeColor=none;fillColor=#505050;labelPosition=center;verticalLabelPosition=bottom;verticalAlign=top;outlineConnect=0;align=center;shape=mxgraph.office.devices.printer;strokeWidth=11;fontSize=20;fontColor=#FFFFFF;" parent="1" vertex="1">
                    <mxGeometry x="1307" y="434" width="56" height="47" as="geometry"/>
                </mxCell>
                <mxCell id="30" value="" style="sketch=0;pointerEvents=1;shadow=0;dashed=0;html=1;strokeColor=none;fillColor=#505050;labelPosition=center;verticalLabelPosition=bottom;verticalAlign=top;outlineConnect=0;align=center;shape=mxgraph.office.devices.workstation_pc;strokeWidth=11;fontSize=20;fontColor=#FFFFFF;" parent="1" vertex="1">
                    <mxGeometry x="1392" y="458.5" width="53" height="59" as="geometry"/>
                </mxCell>
                <mxCell id="31" value="" style="sketch=0;pointerEvents=1;shadow=0;dashed=0;html=1;strokeColor=none;fillColor=#505050;labelPosition=center;verticalLabelPosition=bottom;verticalAlign=top;outlineConnect=0;align=center;shape=mxgraph.office.devices.workstation_pc;strokeWidth=11;fontSize=20;fontColor=#FFFFFF;" parent="1" vertex="1">
                    <mxGeometry x="1462" y="458.5" width="53" height="59" as="geometry"/>
                </mxCell>
                <mxCell id="32" value="" style="sketch=0;pointerEvents=1;shadow=0;dashed=0;html=1;strokeColor=none;fillColor=#505050;labelPosition=center;verticalLabelPosition=bottom;verticalAlign=top;outlineConnect=0;align=center;shape=mxgraph.office.devices.workstation_pc;strokeWidth=11;fontSize=20;fontColor=#FFFFFF;" parent="1" vertex="1">
                    <mxGeometry x="1532" y="458.5" width="53" height="59" as="geometry"/>
                </mxCell>
                <mxCell id="33" value="" style="sketch=0;pointerEvents=1;shadow=0;dashed=0;html=1;strokeColor=none;fillColor=#505050;labelPosition=center;verticalLabelPosition=bottom;verticalAlign=top;outlineConnect=0;align=center;shape=mxgraph.office.devices.workstation_pc;strokeWidth=11;fontSize=20;fontColor=#FFFFFF;" parent="1" vertex="1">
                    <mxGeometry x="1532" y="385" width="53" height="59" as="geometry"/>
                </mxCell>
                <mxCell id="34" value="" style="sketch=0;pointerEvents=1;shadow=0;dashed=0;html=1;strokeColor=none;fillColor=#505050;labelPosition=center;verticalLabelPosition=bottom;verticalAlign=top;outlineConnect=0;align=center;shape=mxgraph.office.devices.workstation_pc;strokeWidth=11;fontSize=20;fontColor=#FFFFFF;" parent="1" vertex="1">
                    <mxGeometry x="1462" y="385" width="53" height="59" as="geometry"/>
                </mxCell>
                <mxCell id="35" value="" style="sketch=0;pointerEvents=1;shadow=0;dashed=0;html=1;strokeColor=none;fillColor=#505050;labelPosition=center;verticalLabelPosition=bottom;verticalAlign=top;outlineConnect=0;align=center;shape=mxgraph.office.devices.workstation_pc;strokeWidth=11;fontSize=20;fontColor=#FFFFFF;" parent="1" vertex="1">
                    <mxGeometry x="1391" y="385" width="53" height="59" as="geometry"/>
                </mxCell>
                <mxCell id="36" value="&lt;span style=&quot;color: rgb(255, 255, 255); font-family: Helvetica; font-size: 18px; font-style: normal; font-variant-ligatures: normal; font-variant-caps: normal; font-weight: 400; letter-spacing: normal; orphans: 2; text-align: center; text-indent: 0px; text-transform: none; widows: 2; word-spacing: 0px; -webkit-text-stroke-width: 0px; background-color: rgb(42, 37, 47); text-decoration-thickness: initial; text-decoration-style: initial; text-decoration-color: initial; float: none; display: inline !important;&quot;&gt;Small Central Office&lt;/span&gt;" style="text;html=1;strokeColor=none;fillColor=none;align=center;verticalAlign=middle;whiteSpace=wrap;rounded=0;strokeWidth=11;fontSize=20;fontColor=#FFFFFF;" parent="1" vertex="1">
                    <mxGeometry x="1186.25" y="169.5" width="190.5" height="40" as="geometry"/>
                </mxCell>
                <mxCell id="58" value="&lt;span style=&quot;font-size: 14px;&quot;&gt;Printer&lt;/span&gt;" style="text;html=1;strokeColor=none;fillColor=none;align=center;verticalAlign=middle;whiteSpace=wrap;rounded=0;strokeWidth=11;fontSize=20;fontColor=#FFFFFF;" parent="1" vertex="1">
                    <mxGeometry x="1305" y="473" width="60" height="30" as="geometry"/>
                </mxCell>
                <mxCell id="69" value="" style="sketch=0;pointerEvents=1;shadow=0;dashed=0;html=1;strokeColor=none;fillColor=#505050;labelPosition=center;verticalLabelPosition=bottom;verticalAlign=top;outlineConnect=0;align=center;shape=mxgraph.office.devices.workstation_pc;strokeWidth=11;fontSize=20;fontColor=#FFFFFF;" parent="1" vertex="1">
                    <mxGeometry x="1391" y="313.5" width="53" height="59" as="geometry"/>
                </mxCell>
                <mxCell id="70" value="" style="sketch=0;pointerEvents=1;shadow=0;dashed=0;html=1;strokeColor=none;fillColor=#505050;labelPosition=center;verticalLabelPosition=bottom;verticalAlign=top;outlineConnect=0;align=center;shape=mxgraph.office.devices.workstation_pc;strokeWidth=11;fontSize=20;fontColor=#FFFFFF;" parent="1" vertex="1">
                    <mxGeometry x="1461" y="313.5" width="53" height="59" as="geometry"/>
                </mxCell>
                <mxCell id="71" value="" style="sketch=0;pointerEvents=1;shadow=0;dashed=0;html=1;strokeColor=none;fillColor=#505050;labelPosition=center;verticalLabelPosition=bottom;verticalAlign=top;outlineConnect=0;align=center;shape=mxgraph.office.devices.workstation_pc;strokeWidth=11;fontSize=20;fontColor=#FFFFFF;" parent="1" vertex="1">
                    <mxGeometry x="1531" y="313.5" width="53" height="59" as="geometry"/>
                </mxCell>
                <mxCell id="72" value="" style="sketch=0;pointerEvents=1;shadow=0;dashed=0;html=1;strokeColor=none;fillColor=#505050;labelPosition=center;verticalLabelPosition=bottom;verticalAlign=top;outlineConnect=0;align=center;shape=mxgraph.office.devices.workstation_pc;strokeWidth=11;fontSize=20;fontColor=#FFFFFF;" parent="1" vertex="1">
                    <mxGeometry x="1531" y="240" width="53" height="59" as="geometry"/>
                </mxCell>
                <mxCell id="73" value="" style="sketch=0;pointerEvents=1;shadow=0;dashed=0;html=1;strokeColor=none;fillColor=#505050;labelPosition=center;verticalLabelPosition=bottom;verticalAlign=top;outlineConnect=0;align=center;shape=mxgraph.office.devices.workstation_pc;strokeWidth=11;fontSize=20;fontColor=#FFFFFF;" parent="1" vertex="1">
                    <mxGeometry x="1461" y="240" width="53" height="59" as="geometry"/>
                </mxCell>
                <mxCell id="74" value="" style="sketch=0;pointerEvents=1;shadow=0;dashed=0;html=1;strokeColor=none;fillColor=#505050;labelPosition=center;verticalLabelPosition=bottom;verticalAlign=top;outlineConnect=0;align=center;shape=mxgraph.office.devices.workstation_pc;strokeWidth=11;fontSize=20;fontColor=#FFFFFF;" parent="1" vertex="1">
                    <mxGeometry x="1390" y="240" width="53" height="59" as="geometry"/>
                </mxCell>
                <mxCell id="80" value="&lt;font style=&quot;&quot;&gt;&lt;font style=&quot;font-size: 12px;&quot;&gt;&lt;u&gt;Local network&lt;/u&gt;&lt;/font&gt;&lt;br&gt;&lt;ul style=&quot;font-size: 10px;&quot;&gt;&lt;li&gt;&lt;font style=&quot;font-size: 10px;&quot;&gt;1 router&lt;/font&gt;&lt;/li&gt;&lt;li&gt;&lt;font style=&quot;font-size: 10px;&quot;&gt;3 printers&lt;/font&gt;&lt;/li&gt;&lt;li&gt;&lt;font style=&quot;font-size: 10px;&quot;&gt;&amp;lt;50 desktops&lt;/font&gt;&lt;/li&gt;&lt;/ul&gt;&lt;span style=&quot;font-size: 10px;&quot;&gt;Internet connection through local router&lt;/span&gt;&lt;br&gt;&lt;font style=&quot;font-size: 10px;&quot;&gt;Server connection internal on LAN&lt;/font&gt;&lt;/font&gt;" style="text;html=1;strokeColor=none;fillColor=none;align=center;verticalAlign=middle;whiteSpace=wrap;rounded=0;strokeWidth=11;fontSize=14;fontColor=#FFFFFF;" parent="1" vertex="1">
                    <mxGeometry x="1161" y="185.5" width="225" height="190" as="geometry"/>
                </mxCell>
                <mxCell id="121" value="" style="rounded=1;whiteSpace=wrap;html=1;strokeColor=#2072b8;strokeWidth=5;fontSize=12;fontColor=#FFFFFF;fillColor=none;" parent="1" vertex="1">
                    <mxGeometry x="1404" y="571.5" width="206" height="95" as="geometry"/>
                </mxCell>
                <mxCell id="122" value="" style="rounded=1;whiteSpace=wrap;html=1;strokeColor=#7fba42;strokeWidth=5;fontSize=12;fontColor=#FFFFFF;fillColor=none;" parent="1" vertex="1">
                    <mxGeometry x="1404" y="791.5" width="206" height="95" as="geometry"/>
                </mxCell>
                <mxCell id="130" value="" style="rounded=1;whiteSpace=wrap;html=1;strokeColor=#da4026;strokeWidth=5;fontSize=12;fontColor=#FFFFFF;fillColor=none;" parent="1" vertex="1">
                    <mxGeometry x="1404" y="681.5" width="206" height="95" as="geometry"/>
                </mxCell>
                <mxCell id="138" value="" style="rounded=1;whiteSpace=wrap;html=1;strokeColor=#cccbcb;strokeWidth=5;fontSize=12;fontColor=#FFFFFF;fillColor=none;" parent="1" vertex="1">
                    <mxGeometry x="1404" y="901.5" width="206" height="95" as="geometry"/>
                </mxCell>
                <mxCell id="155" value="&lt;span style=&quot;color: rgb(255, 255, 255); font-family: Helvetica; font-size: 18px; font-style: normal; font-variant-ligatures: normal; font-variant-caps: normal; font-weight: 400; letter-spacing: normal; orphans: 2; text-align: center; text-indent: 0px; text-transform: none; widows: 2; word-spacing: 0px; -webkit-text-stroke-width: 0px; background-color: rgb(42, 37, 47); text-decoration-thickness: initial; text-decoration-style: initial; text-decoration-color: initial; float: none; display: inline !important;&quot;&gt;Store #1&lt;/span&gt;" style="text;html=1;strokeColor=none;fillColor=none;align=center;verticalAlign=middle;whiteSpace=wrap;rounded=0;strokeWidth=11;fontSize=20;fontColor=#FFFFFF;" parent="1" vertex="1">
                    <mxGeometry x="1404.75" y="565.5" width="190.5" height="40" as="geometry"/>
                </mxCell>
                <mxCell id="156" value="&lt;span style=&quot;color: rgb(255, 255, 255); font-family: Helvetica; font-size: 18px; font-style: normal; font-variant-ligatures: normal; font-variant-caps: normal; font-weight: 400; letter-spacing: normal; orphans: 2; text-align: center; text-indent: 0px; text-transform: none; widows: 2; word-spacing: 0px; -webkit-text-stroke-width: 0px; background-color: rgb(42, 37, 47); text-decoration-thickness: initial; text-decoration-style: initial; text-decoration-color: initial; float: none; display: inline !important;&quot;&gt;Store #2&lt;/span&gt;" style="text;html=1;strokeColor=none;fillColor=none;align=center;verticalAlign=middle;whiteSpace=wrap;rounded=0;strokeWidth=11;fontSize=20;fontColor=#FFFFFF;" parent="1" vertex="1">
                    <mxGeometry x="1409.5" y="674.5" width="190.5" height="40" as="geometry"/>
                </mxCell>
                <mxCell id="157" value="&lt;span style=&quot;color: rgb(255, 255, 255); font-family: Helvetica; font-size: 18px; font-style: normal; font-variant-ligatures: normal; font-variant-caps: normal; font-weight: 400; letter-spacing: normal; orphans: 2; text-align: center; text-indent: 0px; text-transform: none; widows: 2; word-spacing: 0px; -webkit-text-stroke-width: 0px; background-color: rgb(42, 37, 47); text-decoration-thickness: initial; text-decoration-style: initial; text-decoration-color: initial; float: none; display: inline !important;&quot;&gt;Store #3&lt;/span&gt;" style="text;html=1;strokeColor=none;fillColor=none;align=center;verticalAlign=middle;whiteSpace=wrap;rounded=0;strokeWidth=11;fontSize=20;fontColor=#FFFFFF;" parent="1" vertex="1">
                    <mxGeometry x="1405.5" y="785.5" width="190.5" height="40" as="geometry"/>
                </mxCell>
                <mxCell id="158" value="&lt;span style=&quot;color: rgb(255, 255, 255); font-family: Helvetica; font-size: 18px; font-style: normal; font-variant-ligatures: normal; font-variant-caps: normal; font-weight: 400; letter-spacing: normal; orphans: 2; text-align: center; text-indent: 0px; text-transform: none; widows: 2; word-spacing: 0px; -webkit-text-stroke-width: 0px; background-color: rgb(42, 37, 47); text-decoration-thickness: initial; text-decoration-style: initial; text-decoration-color: initial; float: none; display: inline !important;&quot;&gt;Store #4&lt;/span&gt;" style="text;html=1;strokeColor=none;fillColor=none;align=center;verticalAlign=middle;whiteSpace=wrap;rounded=0;strokeWidth=11;fontSize=20;fontColor=#FFFFFF;" parent="1" vertex="1">
                    <mxGeometry x="1410.75" y="895.5" width="190.5" height="40" as="geometry"/>
                </mxCell>
                <mxCell id="26" value="&lt;font style=&quot;font-size: 12px;&quot;&gt;Internet&lt;/font&gt;" style="sketch=0;pointerEvents=1;shadow=0;dashed=0;html=1;strokeColor=none;fillColor=#505050;labelPosition=center;verticalLabelPosition=bottom;outlineConnect=0;verticalAlign=top;align=center;shape=mxgraph.office.clouds.cloud;strokeWidth=11;fontSize=20;fontColor=#FFFFFF;" parent="1" vertex="1">
                    <mxGeometry x="880" y="490" width="240" height="167.95" as="geometry"/>
                </mxCell>
                <mxCell id="162" value="" style="sketch=0;pointerEvents=1;shadow=0;dashed=0;html=1;strokeColor=none;fillColor=#505050;labelPosition=center;verticalLabelPosition=bottom;verticalAlign=top;outlineConnect=0;align=center;shape=mxgraph.office.devices.printer;strokeWidth=11;fontSize=20;fontColor=#FFFFFF;" parent="1" vertex="1">
                    <mxGeometry x="1307" y="350.5" width="56" height="47" as="geometry"/>
                </mxCell>
                <mxCell id="163" value="&lt;span style=&quot;font-size: 14px;&quot;&gt;Printer&lt;/span&gt;" style="text;html=1;strokeColor=none;fillColor=none;align=center;verticalAlign=middle;whiteSpace=wrap;rounded=0;strokeWidth=11;fontSize=20;fontColor=#FFFFFF;" parent="1" vertex="1">
                    <mxGeometry x="1305" y="389.5" width="60" height="30" as="geometry"/>
                </mxCell>
                <mxCell id="164" value="" style="sketch=0;pointerEvents=1;shadow=0;dashed=0;html=1;strokeColor=none;fillColor=#505050;labelPosition=center;verticalLabelPosition=bottom;verticalAlign=top;outlineConnect=0;align=center;shape=mxgraph.office.devices.printer;strokeWidth=11;fontSize=20;fontColor=#FFFFFF;" parent="1" vertex="1">
                    <mxGeometry x="1249" y="389.5" width="56" height="47" as="geometry"/>
                </mxCell>
                <mxCell id="165" value="&lt;span style=&quot;font-size: 14px;&quot;&gt;Printer&lt;/span&gt;" style="text;html=1;strokeColor=none;fillColor=none;align=center;verticalAlign=middle;whiteSpace=wrap;rounded=0;strokeWidth=11;fontSize=20;fontColor=#FFFFFF;" parent="1" vertex="1">
                    <mxGeometry x="1247" y="428.5" width="60" height="30" as="geometry"/>
                </mxCell>
                <mxCell id="93" value="" style="sketch=0;pointerEvents=1;shadow=0;dashed=0;html=1;strokeColor=none;fillColor=#505050;labelPosition=center;verticalLabelPosition=bottom;verticalAlign=top;outlineConnect=0;align=center;shape=mxgraph.office.devices.printer;strokeWidth=11;fontSize=20;fontColor=#FFFFFF;" parent="1" vertex="1">
                    <mxGeometry x="1412.2702702702702" y="604.8636363636364" width="38.97297297297297" height="34.18181818181818" as="geometry"/>
                </mxCell>
                <mxCell id="204" style="edgeStyle=none;html=1;" parent="1" source="94" target="26" edge="1">
                    <mxGeometry relative="1" as="geometry"/>
                </mxCell>
                <mxCell id="94" value="" style="sketch=0;points=[[0.5,0,0],[1,0.5,0],[0.5,1,0],[0,0.5,0],[0.145,0.145,0],[0.8555,0.145,0],[0.855,0.8555,0],[0.145,0.855,0]];verticalLabelPosition=bottom;html=1;verticalAlign=top;aspect=fixed;align=center;pointerEvents=1;shape=mxgraph.cisco19.rect;prIcon=router;fillColor=#2072b8;strokeColor=none;strokeWidth=11;fontSize=20;fontColor=#FFFFFF;" parent="1" vertex="1">
                    <mxGeometry x="1390" y="556.5" width="33.22072072072072" height="33.22072072072072" as="geometry"/>
                </mxCell>
                <mxCell id="95" value="&lt;span style=&quot;font-size: 14px;&quot;&gt;Printer&lt;/span&gt;" style="text;html=1;strokeColor=none;fillColor=none;align=center;verticalAlign=middle;whiteSpace=wrap;rounded=0;strokeWidth=11;fontSize=20;fontColor=#FFFFFF;" parent="1" vertex="1">
                    <mxGeometry x="1412.2702702702702" y="634.6818181818182" width="41.75675675675676" height="21.818181818181817" as="geometry"/>
                </mxCell>
                <mxCell id="97" value="" style="sketch=0;pointerEvents=1;shadow=0;dashed=0;html=1;strokeColor=none;fillColor=#505050;labelPosition=center;verticalLabelPosition=bottom;verticalAlign=top;outlineConnect=0;align=center;shape=mxgraph.office.devices.workstation_pc;strokeWidth=11;fontSize=20;fontColor=#FFFFFF;" parent="1" vertex="1">
                    <mxGeometry x="1510.3986486486488" y="603.0454545454545" width="36.88513513513514" height="42.90909090909091" as="geometry"/>
                </mxCell>
                <mxCell id="98" value="" style="sketch=0;pointerEvents=1;shadow=0;dashed=0;html=1;strokeColor=none;fillColor=#505050;labelPosition=center;verticalLabelPosition=bottom;verticalAlign=top;outlineConnect=0;align=center;shape=mxgraph.office.devices.workstation_pc;strokeWidth=11;fontSize=20;fontColor=#FFFFFF;" parent="1" vertex="1">
                    <mxGeometry x="1460.9864864864865" y="603.0454545454545" width="36.88513513513514" height="42.90909090909091" as="geometry"/>
                </mxCell>
                <mxCell id="132" value="" style="sketch=0;pointerEvents=1;shadow=0;dashed=0;html=1;strokeColor=none;fillColor=#505050;labelPosition=center;verticalLabelPosition=bottom;verticalAlign=top;outlineConnect=0;align=center;shape=mxgraph.office.devices.printer;strokeWidth=11;fontSize=20;fontColor=#FFFFFF;" parent="1" vertex="1">
                    <mxGeometry x="1412.2702702702702" y="714.8636363636364" width="38.97297297297297" height="34.18181818181818" as="geometry"/>
                </mxCell>
                <mxCell id="193" style="edgeStyle=elbowEdgeStyle;rounded=1;html=1;fontSize=12;fontColor=#FFFFFF;startArrow=classic;startFill=1;endArrow=classic;endFill=1;" parent="1" source="133" target="26" edge="1">
                    <mxGeometry relative="1" as="geometry">
                        <mxPoint x="1140" y="580" as="targetPoint"/>
                    </mxGeometry>
                </mxCell>
                <mxCell id="133" value="" style="sketch=0;points=[[0.5,0,0],[1,0.5,0],[0.5,1,0],[0,0.5,0],[0.145,0.145,0],[0.8555,0.145,0],[0.855,0.8555,0],[0.145,0.855,0]];verticalLabelPosition=bottom;html=1;verticalAlign=top;aspect=fixed;align=center;pointerEvents=1;shape=mxgraph.cisco19.rect;prIcon=router;fillColor=#da4026;strokeColor=none;strokeWidth=11;fontSize=20;fontColor=#FFFFFF;" parent="1" vertex="1">
                    <mxGeometry x="1390" y="666.5" width="33.22072072072072" height="33.22072072072072" as="geometry"/>
                </mxCell>
                <mxCell id="134" value="&lt;span style=&quot;font-size: 14px;&quot;&gt;Printer&lt;/span&gt;" style="text;html=1;strokeColor=none;fillColor=none;align=center;verticalAlign=middle;whiteSpace=wrap;rounded=0;strokeWidth=11;fontSize=20;fontColor=#FFFFFF;" parent="1" vertex="1">
                    <mxGeometry x="1412.2702702702702" y="744.6818181818182" width="41.75675675675676" height="21.818181818181817" as="geometry"/>
                </mxCell>
                <mxCell id="136" value="" style="sketch=0;pointerEvents=1;shadow=0;dashed=0;html=1;strokeColor=none;fillColor=#505050;labelPosition=center;verticalLabelPosition=bottom;verticalAlign=top;outlineConnect=0;align=center;shape=mxgraph.office.devices.workstation_pc;strokeWidth=11;fontSize=20;fontColor=#FFFFFF;" parent="1" vertex="1">
                    <mxGeometry x="1510.3986486486488" y="713.0454545454545" width="36.88513513513514" height="42.90909090909091" as="geometry"/>
                </mxCell>
                <mxCell id="137" value="" style="sketch=0;pointerEvents=1;shadow=0;dashed=0;html=1;strokeColor=none;fillColor=#505050;labelPosition=center;verticalLabelPosition=bottom;verticalAlign=top;outlineConnect=0;align=center;shape=mxgraph.office.devices.workstation_pc;strokeWidth=11;fontSize=20;fontColor=#FFFFFF;" parent="1" vertex="1">
                    <mxGeometry x="1460.9864864864865" y="713.0454545454545" width="36.88513513513514" height="42.90909090909091" as="geometry"/>
                </mxCell>
                <mxCell id="140" value="" style="sketch=0;pointerEvents=1;shadow=0;dashed=0;html=1;strokeColor=none;fillColor=#505050;labelPosition=center;verticalLabelPosition=bottom;verticalAlign=top;outlineConnect=0;align=center;shape=mxgraph.office.devices.printer;strokeWidth=11;fontSize=20;fontColor=#FFFFFF;" parent="1" vertex="1">
                    <mxGeometry x="1412.2702702702702" y="934.8636363636364" width="38.97297297297297" height="34.18181818181818" as="geometry"/>
                </mxCell>
                <mxCell id="195" style="edgeStyle=elbowEdgeStyle;rounded=1;html=1;fontSize=12;fontColor=#FFFFFF;startArrow=classic;startFill=1;endArrow=classic;endFill=1;exitX=0;exitY=0.5;exitDx=0;exitDy=0;exitPerimeter=0;" parent="1" source="141" target="26" edge="1">
                    <mxGeometry relative="1" as="geometry">
                        <mxPoint x="1397" y="915.1103603603603" as="sourcePoint"/>
                        <mxPoint x="1140" y="580" as="targetPoint"/>
                        <Array as="points">
                            <mxPoint x="1255" y="820"/>
                        </Array>
                    </mxGeometry>
                </mxCell>
                <mxCell id="141" value="" style="sketch=0;points=[[0.5,0,0],[1,0.5,0],[0.5,1,0],[0,0.5,0],[0.145,0.145,0],[0.8555,0.145,0],[0.855,0.8555,0],[0.145,0.855,0]];verticalLabelPosition=bottom;html=1;verticalAlign=top;aspect=fixed;align=center;pointerEvents=1;shape=mxgraph.cisco19.rect;prIcon=router;fillColor=#cccbcb;strokeColor=none;strokeWidth=11;fontSize=20;fontColor=#FFFFFF;" parent="1" vertex="1">
                    <mxGeometry x="1392" y="886.5" width="33.22072072072072" height="33.22072072072072" as="geometry"/>
                </mxCell>
                <mxCell id="142" value="&lt;span style=&quot;font-size: 14px;&quot;&gt;Printer&lt;/span&gt;" style="text;html=1;strokeColor=none;fillColor=none;align=center;verticalAlign=middle;whiteSpace=wrap;rounded=0;strokeWidth=11;fontSize=20;fontColor=#FFFFFF;" parent="1" vertex="1">
                    <mxGeometry x="1412.2702702702702" y="964.6818181818182" width="41.75675675675676" height="21.818181818181817" as="geometry"/>
                </mxCell>
                <mxCell id="144" value="" style="sketch=0;pointerEvents=1;shadow=0;dashed=0;html=1;strokeColor=none;fillColor=#505050;labelPosition=center;verticalLabelPosition=bottom;verticalAlign=top;outlineConnect=0;align=center;shape=mxgraph.office.devices.workstation_pc;strokeWidth=11;fontSize=20;fontColor=#FFFFFF;" parent="1" vertex="1">
                    <mxGeometry x="1510.3986486486488" y="933.0454545454545" width="36.88513513513514" height="42.90909090909091" as="geometry"/>
                </mxCell>
                <mxCell id="145" value="" style="sketch=0;pointerEvents=1;shadow=0;dashed=0;html=1;strokeColor=none;fillColor=#505050;labelPosition=center;verticalLabelPosition=bottom;verticalAlign=top;outlineConnect=0;align=center;shape=mxgraph.office.devices.workstation_pc;strokeWidth=11;fontSize=20;fontColor=#FFFFFF;" parent="1" vertex="1">
                    <mxGeometry x="1460.9864864864865" y="933.0454545454545" width="36.88513513513514" height="42.90909090909091" as="geometry"/>
                </mxCell>
                <mxCell id="124" value="" style="sketch=0;pointerEvents=1;shadow=0;dashed=0;html=1;strokeColor=none;fillColor=#505050;labelPosition=center;verticalLabelPosition=bottom;verticalAlign=top;outlineConnect=0;align=center;shape=mxgraph.office.devices.printer;strokeWidth=11;fontSize=20;fontColor=#FFFFFF;" parent="1" vertex="1">
                    <mxGeometry x="1412.2702702702702" y="824.8636363636364" width="38.97297297297297" height="34.18181818181818" as="geometry"/>
                </mxCell>
                <mxCell id="194" style="edgeStyle=elbowEdgeStyle;rounded=1;html=1;fontSize=12;fontColor=#FFFFFF;startArrow=classic;startFill=1;endArrow=classic;endFill=1;" parent="1" source="125" target="26" edge="1">
                    <mxGeometry relative="1" as="geometry">
                        <mxPoint x="1140" y="580" as="targetPoint"/>
                    </mxGeometry>
                </mxCell>
                <mxCell id="125" value="" style="sketch=0;points=[[0.5,0,0],[1,0.5,0],[0.5,1,0],[0,0.5,0],[0.145,0.145,0],[0.8555,0.145,0],[0.855,0.8555,0],[0.145,0.855,0]];verticalLabelPosition=bottom;html=1;verticalAlign=top;aspect=fixed;align=center;pointerEvents=1;shape=mxgraph.cisco19.rect;prIcon=router;fillColor=#7fba42;strokeColor=none;strokeWidth=11;fontSize=20;fontColor=#FFFFFF;" parent="1" vertex="1">
                    <mxGeometry x="1390" y="776.5" width="33.22072072072072" height="33.22072072072072" as="geometry"/>
                </mxCell>
                <mxCell id="126" value="&lt;span style=&quot;font-size: 14px;&quot;&gt;Printer&lt;/span&gt;" style="text;html=1;strokeColor=none;fillColor=none;align=center;verticalAlign=middle;whiteSpace=wrap;rounded=0;strokeWidth=11;fontSize=20;fontColor=#FFFFFF;" parent="1" vertex="1">
                    <mxGeometry x="1412.2702702702702" y="854.6818181818182" width="41.75675675675676" height="21.818181818181817" as="geometry"/>
                </mxCell>
                <mxCell id="128" value="" style="sketch=0;pointerEvents=1;shadow=0;dashed=0;html=1;strokeColor=none;fillColor=#505050;labelPosition=center;verticalLabelPosition=bottom;verticalAlign=top;outlineConnect=0;align=center;shape=mxgraph.office.devices.workstation_pc;strokeWidth=11;fontSize=20;fontColor=#FFFFFF;" parent="1" vertex="1">
                    <mxGeometry x="1510.3986486486488" y="823.0454545454545" width="36.88513513513514" height="42.90909090909091" as="geometry"/>
                </mxCell>
                <mxCell id="129" value="" style="sketch=0;pointerEvents=1;shadow=0;dashed=0;html=1;strokeColor=none;fillColor=#505050;labelPosition=center;verticalLabelPosition=bottom;verticalAlign=top;outlineConnect=0;align=center;shape=mxgraph.office.devices.workstation_pc;strokeWidth=11;fontSize=20;fontColor=#FFFFFF;" parent="1" vertex="1">
                    <mxGeometry x="1460.9864864864865" y="823.0454545454545" width="36.88513513513514" height="42.90909090909091" as="geometry"/>
                </mxCell>
                <mxCell id="170" value="" style="html=1;verticalLabelPosition=bottom;labelBackgroundColor=#ffffff;verticalAlign=top;shadow=0;dashed=0;strokeWidth=1;shape=mxgraph.ios7.misc.ipad7inch;strokeColor=#c0c0c0;rounded=1;fontSize=12;fontColor=#FFFFFF;fillColor=none;" parent="1" vertex="1">
                    <mxGeometry x="1555" y="713.05" width="36" height="49" as="geometry"/>
                </mxCell>
                <mxCell id="172" value="iPad" style="text;html=1;strokeColor=none;fillColor=none;align=center;verticalAlign=middle;whiteSpace=wrap;rounded=0;strokeWidth=5;fontSize=12;fontColor=#FFFFFF;" parent="1" vertex="1">
                    <mxGeometry x="1543" y="722.55" width="60" height="30" as="geometry"/>
                </mxCell>
                <mxCell id="173" value="" style="html=1;verticalLabelPosition=bottom;labelBackgroundColor=#ffffff;verticalAlign=top;shadow=0;dashed=0;strokeWidth=1;shape=mxgraph.ios7.misc.ipad7inch;strokeColor=#c0c0c0;rounded=1;fontSize=12;fontColor=#FFFFFF;fillColor=none;" parent="1" vertex="1">
                    <mxGeometry x="1555" y="930" width="36" height="49" as="geometry"/>
                </mxCell>
                <mxCell id="174" value="iPad" style="text;html=1;strokeColor=none;fillColor=none;align=center;verticalAlign=middle;whiteSpace=wrap;rounded=0;strokeWidth=5;fontSize=12;fontColor=#FFFFFF;" parent="1" vertex="1">
                    <mxGeometry x="1543" y="939.5" width="60" height="30" as="geometry"/>
                </mxCell>
                <mxCell id="175" value="" style="html=1;verticalLabelPosition=bottom;labelBackgroundColor=#ffffff;verticalAlign=top;shadow=0;dashed=0;strokeWidth=1;shape=mxgraph.ios7.misc.ipad7inch;strokeColor=#c0c0c0;rounded=1;fontSize=12;fontColor=#FFFFFF;fillColor=none;" parent="1" vertex="1">
                    <mxGeometry x="1556.5" y="600" width="36" height="49" as="geometry"/>
                </mxCell>
                <mxCell id="176" value="iPad" style="text;html=1;strokeColor=none;fillColor=none;align=center;verticalAlign=middle;whiteSpace=wrap;rounded=0;strokeWidth=5;fontSize=12;fontColor=#FFFFFF;" parent="1" vertex="1">
                    <mxGeometry x="1544.5" y="609.5" width="60" height="30" as="geometry"/>
                </mxCell>
                <mxCell id="177" value="" style="html=1;verticalLabelPosition=bottom;labelBackgroundColor=#ffffff;verticalAlign=top;shadow=0;dashed=0;strokeWidth=1;shape=mxgraph.ios7.misc.ipad7inch;strokeColor=#c0c0c0;rounded=1;fontSize=12;fontColor=#FFFFFF;fillColor=none;" parent="1" vertex="1">
                    <mxGeometry x="1557.5" y="814.5" width="36" height="49" as="geometry"/>
                </mxCell>
                <mxCell id="178" value="iPad" style="text;html=1;strokeColor=none;fillColor=none;align=center;verticalAlign=middle;whiteSpace=wrap;rounded=0;strokeWidth=5;fontSize=12;fontColor=#FFFFFF;" parent="1" vertex="1">
                    <mxGeometry x="1545.5" y="824" width="60" height="30" as="geometry"/>
                </mxCell>
                <mxCell id="179" value="" style="shape=image;verticalLabelPosition=bottom;labelBackgroundColor=default;verticalAlign=top;aspect=fixed;imageAspect=0;image=data:image/png,iVBORw0KGgoAAAANSUhEUgAAAM8AAACHCAYAAACxig1eAAAAAXNSR0IArs4c6QAAAARnQU1BAACxjwv8YQUAAAAJcEhZcwAAITcAACE3ATNYn3oAAABhaVRYdFNuaXBNZXRhZGF0YQAAAAAAeyJjbGlwUG9pbnRzIjpbeyJ4IjowLCJ5IjowfSx7IngiOjIwNywieSI6MH0seyJ4IjoyMDcsInkiOjEzNX0seyJ4IjowLCJ5IjoxMzV9XX1axm0wAACNJ0lEQVR4XtW9V5dkSXLn5ykiI1KX7moxgwEwAAbELAke7gPP4SG/wwJLYpefBl+HKw6fyBe+EHxYqAUWozAYzPS0ri6ZWkRGRmby//ub272eUVFZVT3dwKzd9HRzc3Nzc2GuroiF/+Pf/ccrQbm6vCyXV5flQr7DpZSriwv9uxJd7lIEUbku4b3EvygLCwvmh+FKNONwIiPdgsUgUP/EL74FfC5FGJd/ofwX4a3p4Y2QOEDfEEgKv0U4rDwUDhqycOR9k1DiIw045V1cXKwykbdgWuKhbw8RvlTcYheONCqj5FDX0BZ1dfVg/VJeykCHkN/H9fy0jf5MB17muQGv7TVLT93AU2b6SQ/cxCpHZXW5ep5MMytfiPGLCwuo9Ro0nEojn7pDj778+NTfLGSdJk/KaXFgNq5Nd6G+Dg6II/okF31VnRKelh8X3A0g1K5moH+V2WiA8Sgk+Osh5NmKLDIFVUCM6VVt8q9hMghfGCKsyzwX8UDy4/cOyqJ9HLyZxzynGPnBEzhIxlMnkTYqE55Igy6hP/xO3NHsw4McjFjuqsqL+HDISiP/dQYXG5CaV19B177cnSQDonBBD7lZF5kmw1m3CYRbeRmGJ/F5tFbGNWjIszwvGU8HEpg+iUiXJFdWZnhd3isgZYSyL6WTXJNqfPK07lX0dBF3vVIyjg7e8kSnJ67nedkFj5LYJU4cclI+EHLIAz/qBueRzOn5R5FDdqZtZV2nRf5ONw8gv8oB6QtS9leFm9J3TVjb7m0h2iDqAMi8CCIuZPZxQPLjp8sZA0hay5/hxLM/tPEJzr+pQAa3hDYf+NpQuIQU2AjuULOSKUilvQakugVwWbmazoXUH6KiYFGYUIcMwYNG/i7cjNM/pwONtCkjXcgyj/Ov8dWf70JW4p1spQEiP5woMJgOL1XqxBFvcvjhUCb8xInHhfFRJoKR9zWA1/y96+VWB4v8hLly3gJuSt9R0Rel3xKyvMhvy5yiAo9A6pD13bV9pbVAmI6e9JSb0OJAK8u8tWSilsUryeGqPOnga0023BsCrHSON4MobGRRK6QmdUGQVcN0SiD4Iw3FcKEi0OEZFtLTItjFVa+j5SWRnd86VAtcerLeJZ2CgP1aceFMNq+4nS7pUt00+50jXNPid3jER+8PodZjFojCmTfcdfkRbVkVsrG/KtyUvqNa7dD7bSAGn0iXyV13yJPw6AMRkTpkOOq5x1uYpbdygNnyEHeN17UoOr7/rueV7qsZT83bjZR6KFMynlUsAOWJC8NJRQBPhQpaVE3by4AvFM10OeWmi/QRv4iPJHClW1Se+EviIc7SkFNldX7rGhpysoMvZXynlUDxyBZT1S/lmySekBFyIoyPTsmzxHKv4p2znmQwA9Bm3Ny0zZ4avfr6fHu4Kb3roEKLvym4vmrC7B+udxUs6lP1vhRd9G3KQLpMn65NT7gFwrkkg48LUErj+Ckj5TmNuQCENxncCJk3fodLYF1yvQzBmFN0Cy6U/syhOMLMPu0MlEonPuv0r08rn86ZOMLp0PAkn3VI3JXTuIYWhgoegB8ySR689rnAoeMQ7yzgkeFKToa9XONqeDq8OlZ+NZvrkBkQV12frsqhmMLNBwvlmSvszeBXTf+mEIajMrjOrrc/cJMOyZOQMly3b5j+Gp9Q03TRtsYUbmXiFrtsSXRDBq8FpUX4XCWVUUAflwpYoRnlUk7LAyQ9wimL9CFP/2QoircRkxZfZP1rZeESdzLLCNy0Gu7iO97wW5yOmkswmB0fiYJuflmDwk7TXVECxydenZPLfwmSoYE+XZWjf8YIzBXy6wlRT9Rr+Likvw4iXdRvhtOflz75Wv5WRoa5HM9V5bS81b7fErJR8Ds8Mk6FgAzPWw+3SszimS5noDzbF8l07q9gHMSl7xlHnTT6MOmdQs4E8cQMYGpE2ic/M1fccekE0DIdOPcxKA3LNacnQwxVLJ6VSCcfA77UFbogm1ms38TeBIghj7eDKteqq74IvqEQaegr8X8eoJ6i7FlnN0EbH/UbfSjD8yDlZjt7RVBpQPaRlvYqcL94+0YSZCL8Dg/lXQDylcuwR+IZyDiUTJxOaF9Cez94gy95+/TX3avovWvzfp1L3RJMl58V2y3h5Lo0hCve0ZoyZtqvH6pceeRhp/pK2k2QM6dShP+N6XgTUD8Vq3X1Ksj67MpZw5nmVfonT/InLaGNTxnUSUKLAzKzir0NZH74fd5dI8X6uy9QGk9bqMStLAmtcNBFMl0h+zEihKycjZxO/MK6dE7r9DVfuWDqKyRdjjBknbwZNy+c0MYBGFBoGjo4/5pusW52XyXrVwWJswuoebjeq57MioLOiBpIfYxne2E4td1+nSHr02VsdG3LNA+SP9POysj0LU2YfUC9UEw1IFis9ft2UAVYUePKFKTKyswjnoapilRaKtjhbjSmQfhmeZDVF6hN63wJy894/UOTyBcHHd4aj9GYzyTx0nEqb8pwWCJsGDVskXLJk5BhGwx+lY/LdEDSvgqEfj2egLheZNXfDUodRJmAzNdh/uS3+oT8oCV+E5gHQQlV5j8VpN5AliP1TzcPsmw5cGY6HDCb1jzZqQWu2xq0nJeKXAXdCBKQmYcwsoDoWGdiV5VJhTIN7iWctA7D2fI7gpDDSQcsl78qx7LwFW+DBQ/Gazxc7EcST1kpFyCsWu5xfDnzyGEkiuh1yXhopvTpfhVAlvWsolIm+VZVKoQunmVU98IqTkzEOS1/8iN9TQwPaZqB5CawPghKqDL/qSDLkv4sjmshy5P0lmeWH9500IUFPSoy4nR5NeS+2UIKqhl2vqBBQ3BHkAKWHCE3QhXs/x0ffh35yQav4pFt8OWyLCDymXcKg/NsZRpprYUh4x0m3jJCPoW3HP9VvuoA4/BW/jZOiJ3zrTKJs7ESTdjYrwboGCUiG/IxueI1z15FQdaTCKp7aeyLv56fBMGduNOAOCN54uvK+gro0iRUOf9UkGXpytTQ0rWQ5ZlNMw+IT2e+ykpd0qfxuQD1ZPs91IxaPxTqScCsEq7OTNJk4P81YabplHOaOo2KJQ0k8uun19YR38oihy4eWZZbl1ymWXCXJn1O5nK0TVnXZM/QwL3kA69h4rq0cobK/1VA2taLUoX+LsNlf2rHyWPmG1nVfOWbRkW2OigaicizDK4qK+XAAxgXEHcTpJwOyOM1ab5uSN3bcsziCW0/yvhZSH7i4AeSH1Cqa+nBg6sFEYnIzkM4BBrtoBWskIW/rNJ1yP0LvtMTzg4s2biUmwpG3v2BQZtvF+ayMfTp8SmDO1+ltekjXnjqMhOnfy9VuunkW/NOMN6Evyq4HL5kJHTPKhf5rquKo0ce3/d6VB8v1AwQnmlaGaZx1bIBF5e8MtLKnA9On/kBQl+X5puAtl3acoC3bZdxyTsL8/gJt/yiRrips5eNh2ohI7Ca2GERqhxD0LLCIuJ11Zf7lzwAiEz0p0bt8Coz5b/KZSEjTVM5Na1lyLXhLEtXJidu+KHNcc6nxickDWjxDiDNISdkGvxZPA26jRMx4qo+Se90Ilxpiq1h/VHnkMUGnmlVMvOlTKer6dtyJmS6f25odUg98VudM5wuy5j4LLyKN8PmoQKrDx2YM/PMZN5ZJHRH2wG9IiEsQ6+GLGD6FWaCQMqOvF92APp5mYaDXgs2y2O/ZuIygRM91+mf/uBmuYTPEi/jUnabT+A1aTqyiCznQqa3PnKAO7ddpSmeG8KUi//wQ4M74yOhfMJyKTPC8IqGz6yTRmmZEQev5Qo6PVJuhZTZ8ir5Nw5dVvJbHZP+KoDn+vK2llsOfBZafmYc4Cb+hDkzz3Ugcbgarg6YFfzqbN4CrDSyJK36XX5cyrOtSJjdMRwvIJx8plVcHUiIO03fSec5iZBvXgsNP3FkpQ7X8RlnvSRv1uUlPNPiXNjqiVDToz9OeGQf0aRLn/SNnFZmuzzO8lmQAFSRFmhSxbswaJXTyjRemQh/k6CsOp9lO9mFDm+fL3rj3hTehP9l46mV0roWEJci30aZmyBy4L+clRaKHp1fOym4K6/vtO447hg1bFqsWReNI0LXpRziRXgThxzfBJOfhmC8XtajxWfSd67q2jlouixLYXzSo2iXxjIrThpdHFWgTx6EXHeUK33VGY8vaUsU8qD3ddPJJ2vyV4Kow6QFXdRrenfpCeuKppL/DUKKx1hiD0Lh0OPmfFPP1Pl18Kb81EkCfOpfQWqTuIIa10LLe1NGN0GbCpwcpL6dhPJnR12FH4Vy3bnpdLmViQvcnUS6xiP+Icf64yNZiSOHN3WSbTHCaz24vA6zlCPMpj14XY+tU3646zLlkhbCKZDlSdEuDd+G6MJcjUzShEGEc3rxoAcOvqgL5OITSzr4yFN/xNU6Q4T5FZEyw4nC8k44zvm4zDWsvzy0+KagZiuIfK+1ww3guq1+4m8Cr+N3/VVgKa8+EKQ3zaLlfRvFEig2qWhQrsB7uTQYtUYDEmEfWqXzXg0R/NdMLuxCo3J8OIQOwFwKC3h03svohNVJoHyfZdl3WDz4GYdPxwO3rBp2eYn3DdaWDk66xiGTvP0xDZxzLFeL4S/gL2Ak8AnngxfIremMIxteybd+jpG24EsKeCtWy6Kgy0FY8T1dl40cmXCFbMe7yHVPy2xVL3DPcPArbsF17z/zKkJ5VPwbBJfbvjRBD3Sy+3ryTf3ftB9TIwmkeWvj+dUgOoMrol7Qgh5Lk6pUV0kuWBcWXisRGSEn5HYdnk6oDinMvJYMn1mIx6+yGV2JuybPGkZ6AJn18l4SXl0hsPKS1innXOIJBwd5hi/P+et/lMmuikW/9Lt4ayM/eSVFPtE2COTXctRU5kvjdRwGY35EyqCcCfFRBrFc83PpGDRw8YObrqQw/hNA5h86URFfT76pf8h8PSj3ikWaucu2bwai0G4MN0TFa1NHrAZTTveIT6eLTruokZoO4laj4RfVITTdePmEkyx6Bpfxmr62sqJUThzldVzmE1NVd5+IEdi6kRS/dyh5nU6x5JO+6u+OnXjjlLEd+xZzK5/Ii3IhQ3z2haCj5Ue8b5LWPZsbraZPPbLsWYlWC7oSZF263IqwvOo82HigoS5DR9IEP0ZVxSJDXH25wSnUPw24Tqqf+NcB7cnamwC1kIAe9D2Tvj6VXgXkUBunNpJxaG4Y/aex3DDgMw7+mt7pXJENjnSHnZkbV8nCrx1tUWsdOp6rzGG0UgIPwrVhlCg6h8L2Q8bNLtI4LbrIr0E58MZRYtFJSHZAeNnBq4yoFakZermTM4OIk+SRKDKJfh945o9sl1lkdHT8DJ9JxJMGFF+IZyVRutlSzqwKZx3j/muHrBPK/1VA9f7N1kKoF4CuNARUcs2c7esfyy3Hu2PhoOMHt5tY0TwaDsVtbFrmIg7nIcBgYMYICJuuiw7CRQfyFZ3PDAp55nOIBIpF/IwTm+PNYwdrLRkziinyPXr38UDQpLjI0HL0KwtsYqQP+rGBI4SO1tMxNd5RBmRzEUe5nTPZwUO+ObPJcfJoQ6rRFgOP+dEdJHhN1r82rxp9Pf1/5ZBt8lVBLUetfEWoFRqOSg8HIRojKjnoKMu/Jr7q7jTQad0cKqvL2QUW/Ykmw1E6jp71X6s3Ok50nkV3FpJFGncqMXtJ5opCXvgWYokIC76A4AfcgUhjF3KdCmUEcXwaaafTizIYDLoPVqwMlstoOLRbWloq5+fTsrS4XIYKr45Wy3BlWKbnF3JTcgydpT8qub4kw+V2mZhB5ERb0OwJPxWSecNtXSlD9Z1euAJ2oFGeuK4uLkNm8pIUnALCkXWe6UKMCdaPCAed2q6nZ1geWEf/apBpf1U5s/Crylr4d//+P8RAKEF87jY/IWtFWWvL50gy/IgjzOvIQH6eNzttHl/S6Hy21fWoSndSBRbKhXCeVROtpvVoL143Y23obCgnZk1ulEZNXugB7hLooIvGp5Mhe0GjOTfXwHNG6YRf84kIiX6qwPpQlvicMOAyQqd86KHweHxWVlYG5ejouPzDT35Stra3yrsfvF/W1zbK48dPyvHxcchQFktLy0p34efHJmcTCSw2tvv3H5Q7d++Uyfm5SNQ5/wGVhbzQr+pTI4TXelXZ8OIpBJWROBjwxd/iCaZnuJY/DEYAOUiWqWwrf40Gl2+DM0+tK/IXwa+ey4+0IbSre+hy3ifIN7/lBH/iSVdK4bThy3IuMHyUE7Ry+rTz6bN4+tFX1KYzPNATb0Ec7i0ynv94xSgkHrp1ueT7wR515GriFPKS8dQKzAzSeMxbG9gN7VTwUqnIRhkoxIcPhSNU/kOxukKYYFhy9MZDGqG1cSxe9eh4R+ATAzsBihkkp+gEOGSIZFRIRlGJvPFTK07ETk+Fz88nZefF83Lr9i3RF8szGcpf/sWfu2wPHtwvw8FQ5S/l7GJSDvYPymiwWpYHmn0uzmwky7quLqZl+9ZWGa6tl3fe/UAGdLcORFGnOYNFfYKQORQCOOKjrsjsalF84jUNfaHT+YlT2B1P8bRbF5afZWVeU6s5G5Eth0yj3CHT0NVHaBEQMuFzv1A45LpGYejSt/UZPNGvEk96FLgvTw/wVzmEGjl92vn0WTwh8Vmetm+3IA5plcZTK/itZx7+bHhkINw89ePwFFzxLDkwSmikTj1IHkqJ1zgKiU/Wwsc0tP2xQVD/kaQmDCldCJAG5mXFRwauBCJIC+KA8GpwAFjoTYWBRwe6lLbWy6pAS5Bcd8bLsrfztOzt7pV3Hr5bzs7G5bNPPisf/uJDdfiFsjZa0bJsVNZkFAcnR+Vieiljuyink7E/Jr6+tuYlW3T0y7IqvrOzi3J4fFoWl5dMX10dlXuakb797W+VleHIenFT7vzivJxPJtHxlTpmgNpWUFwORTCiiCcNhdoinvtDrlMzqUQ1fQL1yF8Aban/4vGgKJlpcJEfcfwDSzkRB4RsDDzCfT5VmyYdLnVJ3NrQJo2OeIkHT4RfTjuffhMOzNJfZzxL/+v/9id/SiFMImHEB1ShKbx6PZ/+KTvT+gwIO8JgD6W4lC72E8q60ixUNHd+s5Ii4rlIaxzUcqGG7/TQ1Yo0cPBymCAieXnoRV6tADW+6fiW4wz5zwoIaYKLkEtq2CKJ9jTnZTIea48yKc+ffik2zSp7OzKO83JwuC/6ufY3A7mlcl+zz/HJiYwiZho6MfmvyXCm02k5OD4sZ6Ifn47L8xcvtBfSAKMRhDzK1VQD0nl5/vxpOTw8Licnx+XFzouyt7en/nRVNjc3XY99mwhX5VljcPndPib5KFt4EQZXnoHX+hDEyiAKTJxnozr6RLtcT5/hXKIBTke9GVcdW1zNh6uGI51TEFWbgbzAndo84MkfIBlVl4Q2/DZ4ys/wLE/m2dITXJZfeeZprRMeZDBipAzh3KMQ5kxDdmB0eofl0fCM+6SE6hjT4QjIPBgN8Z0eRnEwU12pEWkPN3odtZwYNuEV7eXJgaMnHY5yXVzJeJSW/jA+PS2ncnRqeC1bcS+ePlFnP9ee56Rsb9/W3mZcdncPytr6ULyTcuvO3fKpZiOXUz3EXxWVhHPNPOyP6EFT8pLTOllpLsri0kC6TMtgWYu6xSUb6WB1KAM8L2enE8taGQ7Ld7/7O+V7v/c9f1zE9Y7+XIrHx8Ag4jmsQBhFlNPtQQ8GSKRyW4Zw5kLj1KXCpOlmL6WhXU0XjmyFkGII2RFGBnKZedx++ucBBH5oGLt54QmdqN2gkRcSyCvakJ8iIS6MFBzxzsV0t63l9Dgwj/4qfB7/62aeqEUiM/4632sB9nQGMqsKOOOug8sjH4WTTsU6a3AheU+jw+FtaeJHbf0LuSBBtKB4kDPo8EMLr+LEgJu96uG46CR0DmYQSEcH++XJoy/Ko08/KTtPHmuvf14uzk/L0eGejen8XA2uTjSZnEnopWacZeMsza6mV+X0ZKzKvygbq6tlY7RaBjIOTtaWl+WrM0y0VDufTMvJWDPT5aKMZCK5RTIuy+nZtJxH7y8b60q/sV7W19ct+2//9m/KT/7+78vKYEXZ0owulBw1Q1nU6JIP7jLWshJPeSmsQsEP3WhtK4W9fLYYaApX18fTJuTbp8n0QISNCqJOAcvUFXzBkJ0TkuPlwFt5QMYB1ikDc4B0szq9Dm6S14IkVizyqUPQ1whSBGXSRUuRcWRIO8ODbxqu4hgTYBxE/6CZrH8Z7yVaVkyXV4xymR/0yEdOQecNXb71qmHoSu1GPpfhXGnm2dvZKcdHhwqfqVOfaA8zEKdmgMmxwsc2krOz05DDXLlwUQYryz59m8pg9g8OypJmkPX1UVkR3c/IaUM2GCx7FppI7vRi6hkHA5heTm28GBeHEeiAdsw6Yy392OucKU9mG5Z+P/rxD8vHn3ykmW7Vp3fM1+7QlEmOVrUv2VFnomOMCbC4DoSnASocg16kjU6qAHJdlZTVklxf0bbULTzRWaE5bbAKwC3degSPaJYf9KDFrBMzTeSV+c3CK8gdpA43yfiqQLkTkP0rGk9UwCz0ldcDJBeIusY5XP3q4l/nBVDp1Xc74CuhqloBcWI0lktDRRyC3ThUIlzQQoo7jTuOnNPJXagTM/Krv5dj7V9Ojg4Uf1GWlxbKpkZ91nDHR9r8a+SPPcyljYCOvLi0XDTRCFhexPLj+PREM8NAI+uCDG1MVpZP5x+tjspQjiUPJ3AD3PJSWdUSbVXGtrq2UoajFeWNwS7IIM9tZIzSyBkOiVssP/rRD8tnn32qmWlN9OiMYUQsOWvYxiPlMBxoCFAlQQLwfSImJGZt/WFMsJscOP8Cpz6rgRi3WOdBPZomH3oAeIQU1cWTJ7jjyYjWVDgNNnDiI83bQMv/tmlfB9KqYiH7VzIeqs8KzuhIhc5CX9HVJXEWFOfk/MOJB36PrOBy5OmZxg1FRROvuGbjmo2Yfn2EPMIdLXz+cTJsw1HH56YmM8+FZodVLZcO948VPtUeaFLOxswWC5ppBkqGrGUtkzRzYUHKgw57yR5GuJdlp8xSWo9JzyXtZZDNQ0KoSv7MRtw4xceQmLFWtLQbDVeFD5QG+dqPSqaEq6wyXPFOZch/9mf/b/nHn//c95AkioqJuqIyKBYeZZSjjnwTWQzZQak7h40lLfjR121bw+xtWb7ZyDAwZDk/xduRogfSOnnFQxX0CKLbgESCGBgy3+ChHp3OtJDRQobxWzxhlj6PJ2Ee3zxQbMWoAg1SFf9KEJWvwkX5epgNC8gWvah7uyTOAHFOXvmAoEUDxdIi8rUDh71WMgDe8VSaK4W/mp5TJTag/ua0OvrB/n7Z29/z7DI+OS3np8wiMqLjEx9LT2QIExkBadc1G62qc3vjrIZn5mC55k21jIjOzA3Qc21iphIzHk8ki6cQpjJALdnONavJkPjN12UOCOQ48r+s7kzLP2YsjIXZaVEGx/5prGUc+6XT47FmR27ALpS/+su/Kh/+/Bcqx0D6LLmylKzWB/UQBueaUFxXV9QRTlfWl53Tgcszd9BDHg3Qp7eMvDBC8wSAE+zS1qikA72RV4LkxKEUPOFiNm95epn4QOKZBvwmnllo4+bFJyi2YpHmmzGeOQBLsqabl64bwfSPEzSAm6QqnSOJW1THc1JXTF/REYrKxTBYyKS79D5CHVx7D06RmFUwlNOzcXn67JFmh2Nt8k/UeNpfaN9xqj3GsYxoZ2evLGmpxHLtbDIpG5taqi3L8HCarjiOxlgwrBUMQfhoOIr9jPRYVsfn/g17GpZuE8le1HIQ/Ta2NrxEQ+fRSLOP0nOyNFWHYWbJU76VoWYgxbFPOh2fuB59z+di4jL85V/LgD78UDwySI/mYTDkn871Q/2pwxL2Ug66LocFrkfw6jKuS19x/VkvKpxZA4R4InqecJkOXicx3ayEIq6D6+HgjbDlV+hkVjx0CIAO7SaeWcg0+JmmxV8Fv4LxSHhWvPPgX5NZBhvSm8A140nlGaHAXSmx5CEMqb1xl9XrfY38rmOoI2EsCOWeCvdlvnz8Zfn440/Ks6dPy4nCz548pc/F6K9R/lC04+NDyYm8l9Uxb9/a8uM4IxnTUAbChn40WvWMQucfOY7lHFP6lfhvOd2SDHZZeg5kSMw4q4PFcmd7Q/6y32kbDhkM1NnVwBggy09G3ImM52R8rOXfmeTKuCTfIJWyM/h+jfAPf/kL0Xh+rj77JmCQaDsS9ea64jSOsHSEE8OmjnP2oA0sQ3QFu/T45EvLU5ftBp8UyZP8sYdJPBzpvRfLvJw25AEEc1mJo70B8IRZvA0DGQ7Z18OzvAC0Vk8gdZvHn/CVjccVowJbQWrbzZAVUdGWZLL+WZlwVgyFO1x/4k9xeazsQrkgztHhtnD24W3oCKiS3bmio1yVnRc7ZX9nR/iFRn3STMpYSzOOfpe11FrU8udUMw6da6g9xxpGoRnm1ta6O//G6kZZH234ZGxrY8t7mLXV1bK5tipfG37xDyWHo+X10VpZGwxlJKMy1Iy0pjy211fLvVu3y5aMbkVaba4My6aWgAN1kmX17kV1SDo5hwIsBzEGykUHZ2bKGcMVJc/3pXQR53tI1IFc7u/CgFyNioJGHZGCugtRUX9QoJlg3/VInVcaGeKZH7plwROCgi7ZFfeepqaNMDLCkT73NeBJT9fzKz0U44jr5V/PK8ItPo8ffxbmpW3TvQriCQMxoaPYjXZQAwgJ32w1LMEuKKmiyImbiz856k9L86wSxxLXKSoSo7t19OMwQQPo8BiFN6rE1I7gMD2MMJkIx+8Kaq8uWzjKrXuLoxNt/DWbMGLyyMzKyoqXYnQ6lkjsU1gqPn/6pKyuyCC0t6FDr6+NysbGmpdjm+sb5UKGM5Bh0WHJisdt8H0ULWNa5d7OmoxN8X6SWvEbaxtlU8s0jq55jIh9DLMY933Ui1wmvr/gmeNy0YcGFIcbqcuSERVEGTmU6Ed/5y+9jg4Oyr1798uaT9+CNzqAxXezEGGcl7XKMzuI648aN0PwAmlU4nRuRDtK9NAhwHLIxOmDyVp4lml46BAzOMkCQmdjjgeTnJoeiDIQ1xMzTadzjW95ZmE2DXWaOL7rWDx+4kIwW1bgrR/PsXgQdUD9I6T/dPrAwA19dPikhckbmagYd3yABiKeoCJoqFr1LgjOyydTg24ANQ5/hC0XCvpRAXIYDqdoh0dH4uQxmIuypI34eDwuz54/K1Mtv+i4HC/73o54t2QkWt+oM5eypU6/talllmYVbVc0y6zVo2gOC1imYUADzzjQOT0bapZZ10zEUfLmhmYr+SzrvHyTPhw5Y4zozizBzDQibZUzUJhmQ39mHR4UxffyMwqofwCHHku+34ODj/zME/9UJ7QtWNQ7Pm0aePDAYFqG5Tlc03EFe5iRwwgg3n4bJlagfzE7ES2aXPRFYoMOhB80IMNiJ9SlR3765giGLgwkLaENZ/rOIBpZQMZnmozD53Jaj+CR9q1nHosDwQbqjp50kY0lyK+Z5r9qSP00XvlB8fxPIxCI/6IJQ1nSuRspjAnVSpRziHU3M48qxHqSAF51OnzKz03Jg4M9zUCaMTQ7TDTbHB8flUM5kmxubHq2wHDOZThDdUCMZntzTS4MZ2M0KgPNAANFsHzDSDAmjpdXtenHp+NvykiGmtF4OHQkA+K9HsL46I7h8OAnxsUARGdnqYY8Zr7BMvLlxE+Y5Rvgo1EVhmfgYl8WdU+5vceTTqenxzakrU2VZ7gmHo7MzeW66dsxfOoGcBzhCBp3vSbF8dKDfuNEYdB0JGZMUnQdTbhTKmw5/FdUhhAS+fd4377RXikraMjqafBc2+eKnnE5e+CSD2jTtHLatEDiWbek6fh1zaYN4/E6OhhUZy6sQUzhpW/PYa6AqBap4VBSQYynL3DmsIkAzuVlWcWJuMYbmP9i5oEe/zIF/4xXfnA3vHTkVO7i4lzLsqP6aMySNt/n5cXz3XKhTT7LqYE6MTdAT2VIbLVZpm1r1rm9uVXubm+VW9rYY0Drq9q/yCA25GNEni1yJlHHxceh57I6A1/50VyhIl05rCjLhh57MO4txVE5swzLNHiYAYmjHMsYksqwTHl9m+cynkZQHOBGVhwnelEtCz5w+NZ73/Zsa3BbVVC8w64b6glX46Apb4JubzqtFHFbJx6xDkeGJOwh0gkhGzwLpyRE8k84OlRocScSOEn1ccFTiYKunavvPKsPDZd4S28h0yS04cS7NPIoAWVnoGAmTZmuEmFmSmYiW9cCbOleB+bRv2u818XVuKowl3RxvrpozPypddSwmvpHGvMwg6kTmKawXzVWOssR/fx8XI61z/FzYxqteXzGb3Sqs3F6dXR4WL74/LPy/NlT50XHY3+zKqPY0oZ/Y017F81I28K3tIdhhumWZZpN6Pwj7WEwjpVFDAljQFlegNPySkbMxLHIXo4CqOMvKM7GoDjZhowj9jcY4xK6iw8DW8GoVA5kosNtzY4bmrHWOOnTrMSROHs20mFElMmVJP7BUPsoRkHVzyV5Kb6tN3BqO/c8QFfvxCvMUwquR/NWXHHk5SQYFEZEoEkLvcejPD7MsRxIkR+QfDnSW0e5Lg/n3+sWuvQzQ4YzXcpO3pTfQoYzfjYtOJBxkuCwuDz740NHBzVfMCcgIwWm+zoAFewkzi6Jhl5hGp1p3IsyhYOvVoSoNARsXqoQtsIwhWBkszxEbR5VwXDOuV8inKPeIy1tiJ9q5iHZw4fvlN/9vd8tD+7e9Z5jRXlvrK6UzVUty1br8bDyYAmEPhcyAKVWZ0UbNaSWgvGCH4/Q8PSBeMXHPRmHhWPky2JWv44n1zEul0a6Ki2zIwcbylqyKD8zQ8xUWg3KAC/LcDQo66N4yHRDBoQR+RBDulI+7veQLzdYKTv7H88Yyoc6YbbLDqGQdAPHKSOAqife1RkXM3imofajbukT4rVTnHR0G0AQENf1G7k48LHwGh98QPIlDTmhV8qiXsNBm8WDJzpy4vP8V6Wfpc2GAVHtA0kDwOP+owKhCsTIrHU3geNvZjGQrZ14o4GUDMRpyUc0K1crFKpbSHE0klA3thnT0SExIeLkuPmofREUOi4HA9zwVBeXmGnZ175nqKXXUCM5jbSm5RkzxhUPZE5ONAtcav8zKre2Nsra2tBLqlw3oyM4s4Kq2OWOC6DxyAPDCL+rOzs80ks/GYtWYjYaDJoRXqtJ06+YmZQdNzt9I5jZR1MX+x54MJhN6b+tGXFrXU7luLW17WUjD7WShtl172Df+yp3KusRKlJl1oUSmBgudIWBesywHMUSTZjrE3a3DD7p+bMIOKLDZdoWTEu/iXt1mD5gsZ3M6BvB0+J9muuQNPelRkbiGd+mnTXC14EGcFdHrQwyqAqJZr+OWETPAlzO6A3yksrX8wGnIE6LHMLqrHK2mSobfWj56Gwkys4ZepmEMy8VE3HcMDyfjP0C22RyUZ4+3dHofKX9y3bZ39svX3zxqDz6/Iuyv7tr4+EkjAOCu1ubXpLxbNk6S7XhyCdqNiLlx4acx2CiGNQLhooC1th5WC/Kw6hsfWEWj3h5ro1n1WLJRN3X42mV248KIVPxnlkZDOryjJurHGSsyopWtbzcZPkm/jXt225v3Xa9kedERsTjRAMtLSVM7UfNR12iRFdvCob+MgrXL2Hh6K0NFnwEgoeS6YqGUVgdBxqyKUslwmMWGKpjydjta+XooCkzcSD84FGIpMahp9/iwZfpwm9dyk7+NIwE6C2tTUuc01Eu4qzP9XwA1UGw5LpUSSNxIyQcCWGsTiBqCPJfXIbqtYBcyPh58oELYyVr+dVwTaiy6WB0pOhsxEV6K5Q8VUdH6zrXkoln0jgHGcoI9vcP1Kmm5eT4uPzsZz91R/zW+x+UW7e2lI5KnspItBTSMo1Rn9OqjQ3uyYTRkBXLonONvvnBEzKj8jFS7iPZIJShOyc8lyqjwhfnxDEjFW328a2k+NCZHiu91YbUZSyhFCnH7MmsQ1HdufWfvRPLuBGGJKWGilvRoLKl5Rtf5HFdSEeezUMfjFHS3enDaKLacIDLIYi6i/a2jCCarzNyBjEPEPChtjqf9CENCToZVQ5M8CALmuXWuFnX01OnFg9ocYBwny4cMIu3PG2ajE86bdmGXSbXnvitz3VZQDWeEJrOkH5NRNBp0uG5YmtGVHCN8HIsIcVwWQaZ0yFRjGwIgxMfuP4hxHKCHwcvAkKGDwaM00EiDp+l0Xh86tegeZByb3/fnZnHXZ48eeYDA54vYw+xsbbmF804GOBlNu7LbG9tadReIXsWYs6LtBgIBhSnXcSE4ThfLZuCxsgdcYzi7Hu8F8HoPJKHvkvLcizdUFhlxLD8VqlKwE3TwUARLOOkhA1vyuYUmRag/DAMGY6E8MDOSBsqLzM1SynWyzjuR7kuqTIljItw0FyXFkfdkxex0Z6Vs/JQB8TX9nKbBE8nw9yVnz/nIT5koS95gENr8ISeVnWuMMuf+CztTXgB8DYMJM8snwdyXa6TWtbkSb66bAsWjxo1Qpzhm5n1YBfUP2O1IqtwV7Ai9OfpPQG08huH10LYP7CIofPL52MRkJXWp2aSx1JEwmK0JoVHZrEQ71TQkARvzUqdlFekMaIvv3zs2WakvQGdeF2zyfvvva8ZZ9O8K1rycL8FXmYjwhzxMttw3yRnSD9Uig6qgzAGDg4wHvSKuuP0CwwaMyUdjDyoH25sYkAYDvsSYngi2gVGb/X04E39eS1bXOglufHkN3pEnvFJLfSWzkpE2RkAuJe0KP0xZJ7ohj+GAEZV5NcwuiiOPGOWjPrFwK2H2Fw2h6lr1EQ5/YfVfsUpA//dP+gHoiuC+sI5D+pOkJ2vBcLkhZuJ6vjdRxv8pVmiAngbBl61NGv5EkceoFj7gHnr1QJ091gzoAiJq4AOFPaUbVTKkxH8GEiVl4WggV3H8DgyeIOWJPGSBrLK5SzBxQBOWuUYMh0pnDSi20CDSRIAZKlj60KGe7dgaSHe6uS+zlDLGWabW9vbZUv7Gd4CnWhGIg8UonMys0w1ujPKs0lfWuKQWJctkvxCLy6MhpusNDavAaAbDUSnjwbF4DE6ibf+4UfnqK7i8qLjSm1ultq4PECwp0JG7EF4rweDIQ06JZ8PL1jaic5pHjdqY5ZET+qT+om8rIZ0tJ4KIxiPOOOqwKhzBUVzGuTj007Q4IG3yhSD2wMU2rX8JMfcDS1ltniGA0dkH58wi8+GZ2XO0mbD4C0frgVx9eWsZc5VUSuDlhaigCugQmXoAZ7wuw6tBMmjkIWHYAjyRSPGrcGfGh2qY1ACnioDlmgERm3CkY9QOVJEmhjtwOlYVS50XaQFpyM/fbFTdnb2bRgnp8dld2+3HB4eepZZ1QiNPD7UMdCIf6n9zoqMjGNhy1H6HNnEBkUjMp0xZh07xcfBAEUUn9PFzIjDIJgtoz7QDSmk4TgZAyehOrJkMAP5cECzCHRkLixqFqNcdiEPS0M/GKh7jrRJ5xuzpAeXkcXykqN0cdvQop7CwBV2vaGPZCKLSP7Q0TwoEOmibeRXZ6NzeaAjQTQbabgob7jobNQDxhrycFm3Ib/mJzn2KmR8i1tmQwcyfF1m8LU0XMvf6djgOECY6yR914suoS/lU2ceGBwfMJNJyA08AhV3KkjylZjHa1RfUVmOc8BxUcEhFxlwEEEwsMqnzuB4HKw1jdM1eMgRqTYM+eAfj8fldHKuZcvEn23iEReeeuZZMh7+ZCnGc2Y0Pq9LcwxMx/Pd/orz+jWdHV7eo+FpazWzX3ijAlHUHQ2qOgA06kCa1DKHbvozmm6q5SQzA9XlepUO/QmX8seI5bjRCj3qGDnhL1ajclryczborllLYeYs7ks9efbCXyz1YQfp+I+s2haWS3rTpLX8TiY0AemijoMXRz/pjMGuT4celiuftMbFk7Nsq3e6nI2Ji6wi7+s8UbdJB+bJAvCtc8WBlreF5M044y5F78uLdNU3XgFcw1oNkSQjKyMCw0GqStX/Ib7SYBDgBS9VCGfIIdzKMwH++j86IiO3GgdfHZlI1u6AN7+kd8ORM5IZjEkX+XgvIR1Peecf45nwvQHeb1koo9GKDQZDOjk+UnqeJeP9m1Gnz4JHfuWt2SpmB3BmuNAVlYzzV+N970MEGpg0U765pjUOBhk1JL0kHx1USBQmee00SNCMob0VKtgApIOXjTj2XB4QQgYpRTa4TnWxbbJE9JfjFQbkvdjdLT/+6U+0XJ0oC6UVC4YEqzujLvK8wGmWcttIbhVfwUOD80YHpXSbOMcQFXrQL3jm0ATlhc7BGHJFo45ddwbxWmbohQv5+DFjJLTprL8g4zPOeVR8Hi15Z+XiWAm0PFyum+pnWZK/BcIudQgIhswcSJwgBezD4hWNegNSLKksifq0AplxZGa5IazjN6d5FA8fFEeIVq9u9slLDJae6awTLh6H4XkwZpu7d+64gqh4llPcr+FA7PxMNEmIZZYaRh3OmVo9VXLXO1BVPEK5FwOPzZxOgg7OGxcGQQIbgej5nFvMTKSh88cSLOpBccKpR4xUiXxowYc/FthLkV6zHvUAX9wLwhB57SFedSCMmcqzPE1Y/GyR8uHhVz5pFR2GerV21jlq1m3otOCNTvazjQk76LDjxB8DmXicPpxnUXBLjbwivpEvaPsRcRHvqI6WeIYTn43P9C1Ab6FNl7gHkMrXyVBQsaZ1uP7adC0OqO6pzesMFiZIWtCRlJkpEjxkdFDJhsTpfOZzcuUjYisXx0zjxlBHQzY+jo6djWQ+IoMhOj26SC6dVJKdhnyYBThu5gCA0zMeBqXDsSTiXRzS8OhNvJLNKVncpBTiig2D4eFPOjOdNG6Kwps3NMNRb6ijjiuFmP2qJrEEZAaSTJSKzieHwTid9kBTRn10Jq34bXBUGn81LIJnL+lBHcAQRq/lnS72TBwQhBGJjiGKjwdhoyxRXzi3HcJrmLyoR3QMJx5dscchLUNFtIViFQ5HGF0s2+JE80Cg1HVwUA6RV5VrV9M43k4c6IQccngpPsK4dubIuFlIWspoZaWclJU0wDzSz0oTrrrWQlyTAeATps5dyGRISOZ0wSU+x5nFgm8ConN0JQ0NZEn0CEEYgFRwHPmhQxgQDjy+r9wrbt6Q4iv1pDPZZ7/SyYnZhvsqJMcQlleWtB8al5VhfLWG5VGUmwydhcJxv4YNN0bA083xyEw1GqlPXiTDAJm4Io6w0tCJpU8+XKkqkE5ERjz58TxaLvtcIipDf6xRqR7kY0B+X0iEeMVaclGQE0bK7QpVWZFAWpZWojPb5sxjOfAqNgYoWKgz0tX6y0tCYpYnnkHIzMajbRi15YOL6MHAMpBNuirPaZRIdOtAXBMfEPkQThrxnc7VZfy8MJB4S299oI3PuI5GCcBbP3WVfq0+mTZlxue6ug5bBTZM4NRCl5FpjnotwGaZli0ngtTw5Uf2TQwaDFzIJo3zrzRzyAs50pXOlTkQoRBGSMfmBiivDozklgaMDdyV5wMcsS/Z2Nj0SM2pFAbBiO57Sl7zIA45dHiV1h1FyyntlaI0UU/MMkvL5MlSDt2iS3ug0JX1J5NzmZ1O6TEwjDXLxEc+MKw0nFhaxhPTGAwSOLJmNqmltBrZFuhIzgwYfqoaGgYkeSqiO7r+USiXA1XgcJuQr0LIrULFI4dPpEnph3NZqqNmPfIiX0C90NEy0K4YYIuMlDt1SlgEtzFUeBvXQoZD54ifh8/yAK0/G2dQ9m4vXR44iOOv+tFOvRyAMqYc+o0rTdK7hC0zmRJhui5CJr0BJJvTyLEeR6ElyXJhnCd4yEV+5gU9tQjVaBgLMD+P/YfR0wgwhQzu17Dp5x0XABpLN7/5ybH0AHyohteMos7KMozl3GhlRXKYYXBani2vaM/BI/+aucTPvRaOglmasXyLm6jkTQePThF1JVrdn1gxqer7MWocZg6/+2MDIp32X+d83F3JGBkitePZM2VDYXR8Hosbn1HONKzaGVUt4APtlXB82mp7a7usSP98nCgd8p2LdDINn8vLNMRT06YYxxBRzSMwNPKHLlwCTMOAIUUa5CtAme0UUhrysjHXvGPWgQ3+8NMBrc5tmPj0gayjlo6zvpUn417CrX3gQoOOL91SbgsZxsdp5okCmwBeMwSSydmIHpl9NSAd9YqyMeWLIhcyCSsXMcTyR2HyI946EScnhNnKeikNkCdSqf9QyzGWWeZTYw1kFDhmHRudUq6u8cQxd/wlQ51jZbTKeFyGo6FmGQyGTTnGoWic+OI7ArEHYlMvzPpn/XR7GorlAZhZQnoo3fIiTy7QsdlfOZnyjs7vEx9uzlIvyKNk1AMUNSCnYezZ+KkSa68yiSw/DIr3ddwprYbyk+Fz2sjLewwKRLh+sjOgAHuZHHhEi1sMkV/fH0SjDtFJLnAlxtXyVmHB43yEk6Pi2vtcKU/B0MV0cHhTdtLDJQ0fAE9o+cFb3paOn5B0gDhAFPuA4yDbC5mvkptuMSpECYgAF7SJcC1cD705kC4cV+ThfAhYYSmXNOWtrtGN2CJ06VjnOL1HfVPk2wbse1mkfuuPBSqOY2I6UYxE2t8o9drGuj/rJOE2NF55JrH3NaRnj6RlHDox26GP78FwCGBjCoPyRToMDdmwk4Y/yqAZKJ7IhodBgc7uwnZpJuOJDzZcOgqgbRAzh2cypcdomE3j9WuemuaGLc/K8SktyiQ+dCGtjGJZS9XT8XHZ3Nwow1UNGgwS1hM+OkAYDmVH32hnB+UoM0WQL9etDCqevPjQK6td1FWbj5wutye0xGf6WMi8jme4xWf5cK2chBZPmJcGEAWN7RPXykr+ltbmDzD8uXAevCA2kS3j1w2WbYQqRzE6V9C7jskFXp0TqPLBvU/BJzU0dWp1UZeD2YGjXH8NR9F0Xj5Xy0kQP0YVy4fswKoQ9j/q3BgrMwxLtxBLxeIia4wPBM1jrmDUn3pzzkOgdEpmBXVPd3bSo4ePwjEE0qh8Nm72WqLx8hqGrQh10phF2As5X5OhBR5PNUgx6xUGEINLGASDBctCSKsbqy6P922UV0SRzUOaHJQiD0okWfAHqxxxlIS8qOeIt1HLp4KcjgQCezXsMpoKJA0casqpM1/FW+hlhh/5XafPS9viyYPf8mccFzWCz1/yZnybNl3GpdOMTQXporIsKCJaxm8CrByI5HukonA1PwrF1TUdcfAQx4yg3udR0TIIYyCxz8BA2FGoJjUK851n9hzqMgqzJOR42EfXfGNaNH5pjdegV4d8sXMQBw3aN/gJZVtk/Fgvr3EHsBfRXmUiOcjSLJE32+J5NBy6MRNJH0TIgKCTH+8WmU7J6NhK5y/iEPZBBsajkiuOGcn1rx5OWs8YDsoYJZiOjKOWGESWJHdFevM+EvKR5e5i3UjokOvLQf3zTGEarSEdoAeX2wNe/qEzOSGDePCQCY945ULH4DVNV0czT/BGvuFbhrNoZfS05Ml4XELSWxwHTlu3soDkNR9l1WWspsn0rWvpyGvpGsAVwKWQKrxNZKIAPVplZsOvh+AljeUL92bYOihOecXmmGJFwfgf/FU/GoK0sJMeHSsP8vliJy+EsbRxds4yDg/o5D7ZEpE9ED9cxaM4mnR8osbRNXFxehX7npRNNfiZtq4j83xcGBQ8zA7MDDao+lo0c9CE3/VBF3Xy0IdGFT+owpZvMTHjcFooitKTDw2kKDnl6PqBgBjizmSIpxhxvafD7MczbbyejUHmIBMDU8yV5Bn1CRLCSQvOPsUdnAzgIa35UZ+WgJ2WifR9m0TYfSUSmz9pQSaMLOID2nQtnuGbeBJPnoTEW8OBH3AaXcZ1ue65RG9l4lwnglflCx5rpZAdlUxYkL74unizVjqQYfPcBDXDFBRppABOeIZpDBsDYQrW8kCpcY53IwctGtnKqG+qSFiDnBtQ11QdmI7pBydVJ7yURpjP2LKiWtH+iHd5lljmqXN6FJY4nmWbyBjoyCzN0Cc6aTx86Q581hvKuZZw06tIczbVckxqhAaX5ex87E/n8ns/49P4lWwMw6d32uSjOydvfF+OU8HpxUTppCN6ihfZ48vzcjgZl93To/L8cF9ur+yfHJYDhY/5trbSYrjr66vKGIOIOnU9Sj55RCeO8ilgnJaxn466pS4bOskdrv9DHnKo/0gTRlrbp0tHRgFJnxef4cSTB5jHAw0328lbeuJOV3XmipDC1A1XTZfyZ10rp8XjZTg5K9Dgvc8/o7U9akAASliyboYuwxgNIg2VH0qQAWH2MRmvf+pY4mGkhQZ/B+Kn9fUHK50dVj49y+sCPBxJh84fhILPz6xJfxsCvxWqvQY3Q3iUhw8T8s6/T/o882GAHDzIAJUXz6zFEokROI6MT9VJx5olDk5O5cYyFn5HRx1csnlhjo+7+6RMS769/YPy5OnTcnRw7Jf0eC1iKuNCt0UtLTmgYCZk5uDXGA6PZAwnx+VIM+Pe0Ul5TvrdXbvHuzvlyxfPy+7BoeLH5VjGy+xzeCyj1BLyRDT2dyzjVGuqKzoRNUZdBcUdgHhXniswaHZKqU7lzpe8ILWjAQQB54EMQPGqaXnRfinP8c4n8I4mAAdmO3rSW7zlAYjLeNyr0nU8VWvKECGVkeN5rsprvuoyHCujPq8Wl/F4QdAxEwGkbzmVAVLSgQyb5yYQA7LTBYnKFk7j1bDjLK/n7YpKWBf5ka9TJ58ajo7ud3IUqa2/j395Vox1P/sS7vUwK4i18NOJHBxw38UfKFxb9XE2xsrqakEGQg7kMeXdHWYaG8bYhnd5LkPSZHOizs2S7FQdlm8kfPHlk/Lloyfl2dMX5fNPH5UPf/5R+eWHn5RnT16U48Njf5hjcjYp/OTImRzGwo9d8YTnuWRiWMw8Rwe8CXteXshoXhwclJ2j43Io/p2jw7J/eFROTyblVEZD018o7ZnSqoh+ENbfFKCOeApBHAnUerYd/zHWaFfqr6aZcYCw8NXRAqJNAOIwFuPy+rQmCaJ99K+TByTuOEEbxrXhxPETB+bxABgZ4ZSdPrqm3+Fz5AGZHj9dQovTA6F0TJmoT6xos0CrSpmOkOQLYa8E+MXHcgr+9C0T4dkYws3HxYyD/JqHQ/CLNcKOMS7PxjNRJ48OxbIqRyrFKZ2fcVPn8sGC8uIIe2tzvdy9c6tsbG7FzERETUNedG4MbXJ65le6+fXqfXVgj/jHYTiM8hwe7B8cld09dfT9/fL5oy/LF58/cnhfBsOXPFma8Z0B9lb8fDxLR2ZGPrnLdxY4HDg6Pi4Hckea0XY0++wJPxyfyFDObCwMC8sDPoe1WlZGI5WJjzYul7W1kd+WRfbyCgcdnC5qIJHMqFfqP8omNMJytKf3LcnjlUHf+UTxJUmqQ+oxaAiDh2HXrYAMMXh2MI5EwJnZdRTCFSLPyKsNtzwJvcxehnVseFvDmZVhvQWUlvKYr5YDl2nTpQzoCYQTwLVSQsj1DFNRfBsMFWRaLYDp4UjiqFcCMsUrRuS3zjLdgBl20AUNWsiOpQBaRBrnC94UHqPjKJiTsXhnRvHKeUmziI+0WYIxraguvDyjI2pp5g8Y+qAg5DL70C0oN7MNaVh6pTFSl3RmDAcpPI2ALv4tUUmZKl9GdT/6o70UkxgHENxr4nVrlpR+woBjOKXHqLk5y+GERgDNIFpWquOfyLD4CD3lEbP5+YoOT0QMV4d+ZTzqAikC6dXt+1wnNY5/4LU+XC9yjqw8/OtkVTz4SBfOy2YLaPigU2jo+lc9AcQA0llW9Vs88zJfjWvjX4dnOvBZw8n4hKqdwWWCTxf+PJcy2nArH7fowlUCgJc4HSc6bcYnD/RU1qSXIHgivfUWY6tMr0QfRj6GolDQnG/4RAdPBfSCFz51eDqEurc6a4TpjJyOLagDazHj5Rx0/5iu9id88IPnyPhpEX4oKtT0qt17Ee7TkClpmDXYl9CxOZDgJuuKOvBUiWBj33LvwYNy//79cv/u3XLrFrOZeGQo3Okf4TTr8BONo7U16bTod4z4Qg95+aOMkste61iz45FmG2Yll2eBcjBa8rumcfDhAxAZr3+Ve6IZUfuuM5XLNUA5KYNTUH/UEfWaOCVUuaIKRYulbgDlBxhVyTvaw3Ujnk5WxU2vcvXP9RVg6SJFu3gVQTwxlQe/He3djtW1YXjm0dt06QMtniDOzice9dq0plVIvI2bpaX8emAQiSIimfuEvpKmKysS1+oZWQiEkEE4hFf6NYAp+RSCDZIqOiFlOA6y+aouNS2JfanzjTVSc9ORhRmf0/W7NconZMd9nugfV2WkkXtdex2+yxY3A6Ozwc9SbKy9ySmf6tWMwvE0J2g837YhA+A5ufhd0qGWYBtaOg19UsY3sTkUmPILcNLjeG+/nGnDz08pnvpmaPHH329vbZb7927L3fWSq1xNtbQ7UR6a4WSN/oFgjFqFPj6blhPkaS9zUQblRJubMcvEfe1/lN+J9mGw81BpPmzLXg+g3P7nesPxz1VmQtSlWSuedVXp7vzi7+JMlE99qe2NJ11gwQA0paUvEdK/5Iv27NPMowGzPLNht70gDRCAlvQEpaqtGn7mldDiuUSDlnkkf0tLHhuPsCCaMRUInwog60wkiuo04+DvFYADJenoGd8ZT+XpoVUOP9L4KzoVghby49g5cLuaPkdG3O31jfKAT0cR1gjNd6AxHzoTexePYhLCs2nsNfgNHT+675VRnK4xW7Fc4icW+XYB92R4jm1rbbPc2tgsC+rZGAiHCgeHJ+XDjz4v//jRZ+UXn3xRPn/KKdiROvaRZa5JPjPbZDwtZ6eaLWQIE3V+0iLVp4kqB7/OQOVBlRLe13DOze1eTvcWllY0062XoeQtD0bl9q0Hmt3uaskXv3vKCSNfxFlyW8mooSvM/S63Xta/KzTq0LONHHWIn3UahoFW7aUwfAJm2hDCf8UhhnCVA6ThBI4TXyTvAJrzrkA4/aQn7vQN3tKSD7gmz1qjo7VUnYfv9OgryHRAiyMnjTJl4rf5gqtl+oLmCAOEjyNxzawqwpVg42qFcomd5EELKSYCDkBsFQkZ+ElL5+WWZUpVGoVlFDMKeVoY+KJ/We1b2+vluw/uly1+hp2TsfGh7+HwYXRuemJAfqJAyym+aRCPzUgv/hjxWT45yLKHJwT4qXftL8TLydovP/q4PN95YQP76PPPyw9/9ovyow8/Kz/95FE5ONd+Z1H7p81b5c47D7WUG5iP5RUv3vE0N9piPCy9OLhg/8LsyI3NoZZy62vBR/mYyTjl4/ie/dbJ4WHZ29kpq5wOrnIyyKezwPnmHE9HSBaGpzJhPJw2un5c7VGHKlAMQtSp65vIWtfmDVq3JzAvTQWN6D4Ox8ASeMgQUmWTyNn5n8hd+pAZ+QMhJ5ZmGZ7Hk/SEWR4g4xXj8uJz8RfFD3w2j5twIPE2Hlj64z/64z81JmD5khUhPvm9YgFKXNfVCSEw/EpxPJxBC7rDRvTf9IhnueESGcSl/BmRY+MelRZgO7eLd3cizriuVXXWh9pnrGraOVVH4wEV9gY8QU3jxxaGWYgfkloqd25tlru3t31U7GfWFIdhsc87ZqnFL1ir/NyT+fzRF+XR48fenxxI9k9//vOyd3iqqWW7/Mb3fr/s7h+Urdu3/CsLtyWXL5FOx2PNNtqLnJ3aGO4/fKj9Dk9zT8r6+kgdP37jh1nxVLxj7XOYdThtY+m2trHmPdma9kosL9e1V4rf/uFn7rUclNyBdF5dgWckA1qxEXJQoanKp3G3b99x3bgzy3f7qm2Y3N2EcuFFPPWTncMUt3+0FTMSkEfWka7K1l+m7fZKMiykYPyUiwxJ00J2QtK2kHSgxROsX0PP9J1PWXWlL0+JHGEgbZvnLE68l/iCzKflSVj6V3/8r/+U6GTqff83nhAKGcl/NTN1aOcFrsoVU/ChJDeZFO6ZCDgdVzDSCOEADCfx4ImKjyz0H5LiGbWF+MRr4XBcPvrBD7QJXyn37j/QvoWfSRRdPOdTdZpFZh4t5WQAI23+t7VZv7296Q7M5APQubjJmadc4Dsa7ScyApZZT5/tlEdfPpERLZc7d+6XgZZ+n33yqeKm2o1cWC7f2Tl48dzfv+ZXrO+oAw9Ga75xOhrx7NzQH2yn0zHx8Swar0z7lE17GW5ynmnW0aJO5WNpoEaSW6bOeMOVT2bJ4DYkk59D8c+NqIwUgWf5GEx8yKA90u07d0yLB0MpoJwYaQpQ/rlFa13T9sHmWMWwdIyrprBhgBIiGd2TNiFtSBEEK83GfweNwlP7QPazWWhnoeQhDJ4dOnnSOW98XfSX1D/BaaP3zM23paWshDYcT5L04D3PS0rITwcY5yJsEv8yQ9IQRzqqikqDL+XWeHDkZBy8pOFCVPyLeMuWA4eREVC4UkmWosCcEWRVjHrh4c5+WVAnZNahc77//gfuPPwkx6b2C/du3Qo9VPH88C7fpWbDzw9LIZtP2nIf6Fybc35mkU3/uWafWFoNvF/hI/H/4vv/ovwPf/gvyz3NNA+2huV33rtbfuv+7fJAs8k2s4mWafw4FqdtPKnNjUtuiJ5qNlPtlw2+SiqZq1oO8vIqjc1viioXP9g55IU27jmJl6IzQPBZ3ZGMYFszz+3NzXJHhs8PCEP340wyMn8zIapEkljqcXQebeDOrQuBbkvXK3UZDoh6h9zTYz8ZrqNzVTxyE9S0gOXjE1/TKWQ6eOaf4aQFX0DL18a3tAwnv/2qj7iM45ufftaUvU0/D2+hjZ8Nq+4DycStkGthLvmhH//CkgMnDj4ygEdxbjCWS5HOyzDkMMyrQ3gpRRouaMhmfFDHyqeTkXHJA2JOH0s1BeSTd/BYd42s7GEmF5oBxLf79FnZefKkPLx3z0sefrb9vYf3y9oKJ1vFS5yNzbWyuIx+2ht4iaEoyeGJBA7eGN1EUCecSvagvPveg/Kd77xfbt3ekO6TsrUVy6j14XK5K/n3trZ8oODfLtUehLdUB8sr1hNjuHf3Trm1vaVZMu71sAfjjdboZCwlB9p3XWpZtuxl5YqMwbOkjGag/VC82yRWlZfqumR/xu8EyQKpDYwsl7vMuu88eMdPTvCpYGXiulNSucC7D3VA9MyEcARTH30cfOTrJbz8ztU0MWhCIBi+W8l47GcyT1PIu7oujzl4ywPgh6zrPAlK3V1KqSbU7MQFL/0sy13TtnJmcYBwQsYnLcO0Q5eomxk6Wggxros/OykVroWGRiaZDl/Oo75yswKVRqFIk7TAMQjS9i55PII4DA86RjJRNZrzyakwMk6enj56VCYnp+Wddx9oBtqKH7nFUNSx7mrW4IiazTUqL2mfhByX0f/DcKCxNxnIcaOTfNSXy9oaH1LU7DFcKvcke2tjZGNa07LMy0A6vjbta6syLs1I95iZHtzzwcHqOocCkrV05cMEbq4OpfzqmgxO8lZG8Qq5hwd08h6DgwN04nUGpdHSjV92QFd6Nnsd9nJapGrWIZGMkKN6GaT7OHUvboAy0M7Z1jiHiZGvf9fpdopDBvT0q3O7yDmM/IpLC8F1PuLBW+jiKl+GW4DmwUzQyW94yDlaJ3zTxAOgOxkTlzQgZeDP4q1LaPEEVg5O6MQVB8I3xeHrAP1lYR2QkZzlii8aSrj9GldFRDj8xPnXz2S1IPUKtcwk2YxEkeRclcuNx6E6Ie/DcAr1xWef+pfe2GzzFih7IGaRO3e3hXNUzBMAmt1q2en0+TYpRkjnDWNgNlRn5wRMy7BF9chFdfwlRjf5zHZL6tzMAuw/6PxLyovTsPv37viezlCGwa9cD5e1XFO+7NqxB3/sQ/nzxMJI+xi+N8dH2zk9o2QaCjzrcJDBmpvyeqZR6dnpLGt/E3ujaHwedqXa+EU8Tvu8T3ClCSinUAzKQV8CCkoN0EGFut3gRaZ9ooPWjuDmUZ7OV1BzqWmjXaxZjXAulRdIGfP2MJ3MGm5x/AT3CfRsfOOVBzz3Spk2XZsvMC+uTTOrh6stISPxw5EoccXZwUGqNuUMSDiuZmXc3Eb5B94oNQeHKfIPl42HHsICrz5HuZwujbSMGq1u+P7GYKDNtJZNX3z0sZdB7A34SZFV7TlWNCLz3YJQSRVLn1E8j8pQ0XRc/4K1Rm824P5BXpiV9yLHsyzt5Dgej826pFzJwCTHP7OoMEvD7VsbXqKRdnkB2Zq2FIqBRAag/PxhERnQaGnFRsiboOuaFdeZOaTYomYd9jAj8XKi6G9qKy2jnjasZUl5Lp6rfTgUUZiZCX0wdLeZjCuXhgaR3J5c5o+lULhgoGYJOAki3CaVR5aX/PDYr5D0dOiDsrP0m1zKSQCnbbq2z3JUoKxKWUOoW/H0qtxM24ZnXQJ4m1/GZ96Je+ZJyMg2oRD7xu3MciMg0+nlnDFE0qnTEFBMJ5/9TofLdfnCLl5Qb4oRIjz0qPKhy9EBltRZubmoOaCcHJ/6bv/x4Un55MOP5T7yKHE+OVWnVgfUrBAb7RiRLEMjDfsfPkHle0oYDHmLhTjyYP/jR2N8Y/K8nGpZeKq8+BkTXqxj5ObTWKPVZS/jFhYVxgC0LOORHPZYFwtT50Oe0D0JqSzkwQziAwLxrY20xJOhc9OYX2DDWMkfXo6w/fFFzFIVw6zFY0d+CU+yfW9Mcq6WtdxRUuqdvafrDc/ljbruneoDhuo84yCn6/yz/JIthyzgWpxozqM68CwzgG+aypzQ0hJHFj7Q4i0ot4r1uFKb3/gcmRnO+ORJyLxSBnFtmoxXVxFDZQqoFUBlUnEIgWqWlu/VQBbOnMzkuiILofEQNqtI5HldaVhAHed0JqNhlx6aR0ON8OeaUXi70j8Nf3pcjo8P3bHHJyf+Sfjf+d3f1uy0qo6VozFyZRhylidZfHOAG5Us3+iA+Ox5tK3QDCEWjexnMkKeCjg748kA9heaOTiG1p5mTfLB1aVdbsuRbIyVvcqUh00lg6bi1I1jZ2Y7nsED+HXtVaXnaJq9G8+u8W7QPe2Zfuu3v1N+4zc/0N6IJwgwpOIl6kWZltHGarlz/25Z0ox5LEPm/SSMjBfrvG9y8WgTfOov6rB3UHVR13K51Hb742fn4a+m0T/rkO1F2HFVhuOUDh+65VY/8XQtDZjHOw8UK5XEV6/EW/5ZmSk3/Vn5SQdmDQ8Ah770R3/0r/+UClFMjeyZwEM9R1stlOuhzzR9GDsaDpzEclyM9XQk/Y/4vETjAjJ9FIrRv6GbxogrHDJzJwoqzBKG3+z8/IvP/LAn8ni/5cG7D8q9h5w+bZSd5y/KnXt3LdPy0YhRmI0AOqpS/F6QfORz+mY+8TPCYzDMQuxfeFKaT1XxoZH8tQXi6Kuo7K+Nakk20AyDIVzWGYtl35Ajay3R6Gi8OuDf/NGehr3N2elZOdAAcOvOdvmD7/9+ef/b70nnbe+F1jfWyvb2dtneulVua+/2rW+9W77znd8oH3zr/XJPxsN9pRPNiNxk5aSRe1T+gqmqyDOrfGXpfGkDyhj1LSelwcPAsjVgFs04LLy4R51EGozOaR0XdUodksZRcpYVLIbsX86r4i209DY+9JwPqS2QeMuf+Lz8Emb56QPwg+MSB8D93TaQnF4pap9BjRMWaXrhCT1vD8Ff5VUfh7n0tD6fpBnIr6FHHIF0tYHs6BDop4LKH21uevOvgDqqPPnrm1uaDbbcOWlN7r9wLwddWOLh/IEO7Q0WtC9ZWNCofi7jYQ9hHjl/wEN56OLRmPW1zbI04P2ZoZaBIx87s3/pv9ypVZaWUJeaaS4mZ5r5eNpAy72JOpUMhSNsfhUPwz4701JQRjVQmLzOT8cKn5fvfve3yve//70yXOWTVyqhZqvppQxMcdTdxuaw3L6z6dNAZsPJ2VjLyCN13HH5b37/t8qDO1tlWcu8O/x0pIx8FUOW8fC7RABPcFNzfV3OcU087dDG6V9tK7yebpe8vmi2oDvf6rtdBYRbvI3PMHjyzAPaKaHFZ6GVl/mkD7Q40Oab6RLA4yYprloZ6YOpV3qeOvClwOtZUoCIaw0z7kGoe7AEgOaRK/hCQPWR5/g+f0eZr+bXxYldcvAxHq2DypSRX1cYqkxDgysdmfsVy2Lc2tImnqWU0nkGRA2lEcGnUzhmFJ+weQClfJHfcGVVxrNuuWTHvSVsxTco6fyip14st3AnWjLypLfE+x7OhpZ1nKghdTxRhx8feXPPsfVYS8Fl7Zd+83d/s9x/956/SUC5MFpeMVf1yUgXZVDL/uY2QoljpI/vXmtmEdnfZNDSr1yMte97UU4Pd8vp/m6ZHh+Vo71d7QcPQs+uHnEqJX1ArjtRcx3KwUc1Cad+Mk0OuDkQomvG9U4Fx5fMdgkEZDvi92366vCvCq28xDOc8YnP5kncNVCY4ceIOM3cMyEoDGoewJaZkUKpI0JAEsdnI1h2VUiVGWlrAVg+UcHitSCB6XLmt7Cg6Z/DjuMiTpA4b2deaPQfjEZqSL6OwysF5+XjTz4uv/jpP/gzv1vrG34SmY21RVuuZAqP5aFGZ+6h0DcVjEOEOImLDxiq42rzPxymfjEoJLC/yC/mtBv46XTsD3Pwfo/ftbk6L+Ojw3J4cFh2D/fL4dlJ2bx7qzzUEm1RRnaoZRtyve+ZxncRLEdh3nC9YKdT904XC9pfSVeemOAlOTrp3t5eGWvJdiEDPtO+j4+dXEovnjif8PoDy08lYnZmaZo3s123qgzvI6tjOOIJ8zQ2+oUPACi/ZlLqoEsLTfmjK2mIcztRzTXe9eS43gHEp584cW34OkQ6+1XGm0DK8tJc0IbB2zxTt5dA9KU/ymfbqiLwBj8Jq/FU4cHR+5VscEZcqmzvJ2wJNa3+wkpj5ukU1OUOUnH+zKV4eIAoRPXNoLQR5Q09yjLLsKr3csZHw1c+Zl7f3tRGeh3G8uTx43L/4QM/IT3W0mgoAyNDG7EuFdVH3nR6RnGKTcdy3rr8GSrlx4kXCziP+dx3kbFww5I0dHDeBeJ+jHWtekuyy7S9uVGmmoV++eEvy3/6878sP/vZh0xb0nOrvPPeO9Jt2e/9xM/gX/m1cr8KzimbOjhG706pRvbeCtHMrksDheMtWmYxns2L7y2c2ymptI3n3Rgl+Eop89RQhhwdKFrf8oS4HSHgHEpU/8VEezlMAc0IhE8QLB2NRW8IXI48QGs6YrKtQ1ylk4fQiKrx1yDSBX/s3aBF5wgZQMrr8hAkThx4ypnlnY1PMC6ajYdRxGEinHEonuCRSBeVUMU6nt/FrCEndoepQP7OVDSPy124500luzB4ky8QPEG0zGo55gZNT52I16bXMB6Vh2XXe+9/UD749rd8r4VHYTa10R5pE82HNoYrI1cCewj3H+umerDxKFyPcsk/Hn3ByGNZx1PP+ZAgvNQfnRADcmdkAJE+/oU4xWGs0/N4oPPJ4yflo48/U58fld/+3u+V737vd8qt21vu7IeaiTAeCsSbpEcncQTuz+9KDsbrwwnNghxE0GniyQdmEIxfek3je2481nTFHk58V3XPRi16phHOTdQVnrLQbCoSNshw4Kp2nbves3IrraZncAwehq2I40icgRM5we8IoWpxfDna3g+uql5xXubWy+FqBJRVBKcJF/J6F3HIy3jLFJIDr+UxuFaAlvAqnDRApqMtE58nc+lf5SsJSkfSmGZDYAiWcxhlwzmu/oeXywTuSXjpgxykUTm0RsQZVHDk5YkZU79K3Mkgq5dnnuqSJ+nBUf8v2Ci0XSnqKlqmTMrt+3fL1ZKWUadnZW2dX8I+9ysIU5ZtmmVihuQSKGMqi806QzU3IzEkysOeBiZedXbDwi69UZ19DQYFA3EYFbNUfNeaMprbH18/PDr2k9prWjp+/w+/X+49vFPOpiflQEs3ZhsONc60tOKt1XhDdMFPKXBPhyUpTy0saSCIvlXLLx2cOzR1XvThxuiiZiP0jp+LlF/rkwTgYy3dqOshX+9h0NBFC8HmOpFcUoC7lhQ2npny354jwldctLf4ImgmonHdwJe6mChcPKYpzAAGTjfC75b3DlfnjNALXGkwWuQRiUz9yzzSIDIMzOLRlpnP9XRA8szGxYFBvcB640FQVLod9OQhTv/7RiHMSIevK0reZUj1gZOn36KshhME8ZMfwerAWzC/iZKVPEBN609FyWdV8mz3oAzUOW+/e18dbbEc7u/LKC78SvXR4YFH8kvtETi5whjYE11wNCeahEh3ysET1hMZA2HJ1+iOsbnDkqfyd7kcrxFIPBgNyyrSr4yGZVGbdi8r5fgGgvdh8Cnt5t3tMlH+z3ee26DYu/g+Tz2ouFDHWMZoZCw2jGXJXBuWBcXz2gIGyJdFOVLn4yQ8uc2bo+hLfrWq5KLeQmfai9mLqtKyVnujg73dMpWRujyyPu9hFBfL9d4pwvHE0ZrIivaEVnmoC9FF6HB4jJsXnCB6SCQ6Ubf0DfIXTZgvixExkqffOv5ZjA2HsOWRusZn+2R+LT4LGUeaNtzyZ3xHF65B3ln6AgtLJ1EmTmbXoSsiC5d8PU/1HVcTWEaEIfEvlTAPqc0X7J3IBlIPXMdjQOu4wLl3MlYH/ujRk7I0XC1HRxrNx7EPYXlGGY4OD73x98AAwb1Tf8wecoz0zHx8P41n0OIUTYag5Y99DRJTz1x8F02dnFmpAj9Vz3N0nOZ5WeXOi7fgzs3R34b2YVu3tqthylAVz5jPQQCGzE1PZpqBZLEvY6bkXhKvRWB5PBnAaQarRr57jfOvKLBkU71jPDxtztLyXDQ6l3VV8ZANP0s7cqX+ObCoTZb93kDTpMt46p1lG+GMowDmIQ18usRiF30gXOCVBlgosmLGizaOWcd5SVhN+pKzEQshr+xHxslAkHngO67yJD4LbVy6lp545+PE49YTiy+wSBd4CIxwJEJxeVWAZyjicQp7FoDuYoDTkE5m6BWDCF8AvGZqXQPOLyOqF7Jq9kLojMwALIleqEN8KgPi3JbP1fo1A+7n6P/p8XFZvtLCTp1PfQ7h7lj5UXV/LHGZTrvh5RcGREdN4Lm5SzqxOigGx4yE3XG/B8MB3JnptOoMdFyWZCzhNrY24+dNNFP4G22HR/7MFF/FOT0+86EA+WGgGLXrU3rzUfoY3BddFjr/WIPCiWYgDII9kQcIGwrlkk7UjXyMkuUo9cCBAq93+41ZpaOz7x3sITgrsraJfAnwBc15E0Ipyg5NbYwvRzocbUC4m3XmQFItA1mu/5jVkB1lBuL/SwCbLudT+xvAf1G7vNv83ScrLfnnAXGzvK2cxC1BOMPvNWiF95n1wizQll+VdFj0KLsld4Xqwr0sp68VhPuqkLIkjAAUO25Ycsr22aPHmj34xFT8cC9387nxyeadey/uaJpB2ONccLTMiZY6B4+zcKTLyRdPWauEyiKeAICHnuQJRT5Z8z0CHgL1J6wkn07J3oev7tBJ+UY1T3hvb9+SMTMDXfpVa07SfC9JonjW7vbt2/4UFR8u5E1VyoZhnrGnwiLUbzEyDI88mYFYbY7HZzYI9nM8/YChUN88oOpfhGA2Uxn9TQQZkj/S6AEAY+JG7tTpaBG3US2Xmih8Oe9LKw7iducSD7Veo1HRQP6A+WZcGpzT1nD3XpeINqI50MlQPL4zduaO1VX1r/3CBzcVCGd695nXQMrINAkp0xJEr8bTM7ycUQgCpVw2DApJ6VHZcYS7cpjX6cXj0xV4NPJaXiSLbN8ArhWAPDrX6+hGQHRdio20ZBtqFvj7X/yyTDWSL6ljs0fgTVE69QIvwWle4EFRG4HW7TRgvDimStGKi5fW+LKpkjstTjn6Or/gvsuFO+6Q1yCGA2/yMS5uZsaH5dUxJduvXW+teR/DBp6S8DFEDiv4OROOzknDt6n96I7ieXWCE0KvZ1Sw01M+4j6WzKnzmeK476PGxLB8AqgZaSrHB0ZilonDj0svWdXo4uF1b77JQDoGEQ5SKO/e/q5nxpg5RHIt6qJuXbFZz9Ep3Z44tE28cfNo6bo202VZNQx4UEbmHOhkSIf0qcwwJlKFnLZftDAbfhNwPk26xGlDBdw8YKJEpvrrEl1XRGEUJakrs9KJh0+oRUPCq/GxN+pdyK8KvA5q3jgDeVRHfm5s41VX4tQpefRlY2urXKpj/vgXH5enh6flam2zLKxvl+3bD7wZ5wlnlkgs//m8E8JjScTorPDCwPL4Oui5Oi068CjNWLMZj+9w8ECe7E/46CAHDL7Poo7Kt7GL9ih8QWdtk/tMCzYSZWidcbysxk1EZgEyYonIl0MxNr7uw2zEM2nnYxkis42NM2a2XKqRViLKdCLD4ZEibMQ8qgtFoI+Xj+Rjo2MW4lXzM5Xj1LMpr1v4RqpwjorddrQygwpLN6WlDaN+1R4MgmSquDhSFp+GouBvHOF5jvaSr/9kZGdDMBr+PAg95OrlWQARqlv3B/ME3yyYVxD97+X4t4XU0qdtdlYCN9Nhxdoppb9QgLiex2mNRQECdxNYHsTMhySidPw3gvPq0/qSXxXxyEwDeg+NTviiYxR06s1NGYw66cdPnpfLlWH5/f/xX5b73/qOjEPLp3NkqIPL+bdAWJFJhvqERfOtZ2YqbjJm5+VVh8PD43J8RMe71Ayxov3MsUd/7gXh6Bh+qU5GvKH9zea63NqGVJWBSCcOGDhY8PNw4uc+C8/Fra2vabZhqchjQQs+6MAI6fB8A4Ebm+iQ95LS5/TN36WGxswnn+WanXRhMOBjJBfi84dGJsyYLPN43IfPVGnmU/jw8MB6Z13rn12HU8Xyc6mlUBfnC/8NnHuFfNJnP8MoXweRxrl6b2hwu0d7YR42ZsjIrPxA4rP0rwopQU1MAUIwPrLJIF0YU19QIPweB+sVJGAUyf4P8Vp6/58DNV3mTTp8Okam72Yy8fVTuPjRMS/h/oaZ1l98d2379t0y2tzwzcO7772vzfrYJ2csfcqiRufCMosnB5ROoz7Pj7HcYeQFGLXP3OHOtGyKr5Kilz+OqE6tDD1DEea1Ax6F4TUFfheU/QtfMuXJBaTx8tuKjISZxSd7Swtlc0t8y7H/AWJjHydjfEWUx3wwZB8KeFYhS5aU3Cil2qgjDgtkbOxxvGyUoYn/QjOil3Ys+ZChuuRUjzL5GwqSZz4ZFzOilXCTqTaoW/u0CXsp5UQ5RKPMxNl3nb+ZQ3j62c6iUIxXQ6PTNZwoGx5430cts8YDHe8M/auCc5MsH1Xb6aJjshYnOungMdOEEpAyjkbLCsg7r0JDOnh1BiEZbunpG0hXC+i8O5ypN42IUTbyTABNPRyAhgGxhNNI7l+41tLs5OjYp1wTp6fz8PF0bWoWJVty1R+dF3pwcHChkZ+lDT8hwgzDTVjuFzFKP3/2vHz66WflyeNnZXf3wJ+MOjo9saGsaha5f/+eT+AmWkZJETn2OTJoDgSkD7MWP2vCvoenoqfqzMwElA1D6WYX0TFyO3BmF3V2DNt7GSmdoy7LOTq3ZxgZs41NdIwPo+dHjPlpFQzcr5vTzuJnscZSC8MSFrJdnyy1Eq8dj/aAx7SseyqcWu+ho98AXTvfBMhhYFQfVI5uG2tQhSeOD3R6zoHX5vWGQM7I6pdtViYL0+OQ20zBPQLJGW8cUMVEOlD5kAhkuKNXnHjzmBCVEfpEHhnuHazyJQTf+ZvIHxdSgdhr8CNUn3/xxB0H/rsP3hGuzqbRlsdUSMdIfu4j4LGVig20NtaacVg2sUfA+PZ298r+/n5ZX98s3/3t75bf/4PfK+++/1754IP3/ZHBu3fvlYcP37E8fz4KYejHUlJLJJZl8YDpkvci6q9envF8Gj9hT+ZoHydkMdNgHXRg73lYonlfg7HEUozZQ6ra9xMPMjLCGCIGx/F6fHubp7jjw4580Uc1S9Gd54VnI+2/BFnP0c5hQNG+SYv27lclotW26NJWemQQubw1kBw5GE71uXp9Al6Ff1NAacinn3mUJ056qWFRICoB35VgpSNeqJ3P+h1oIZhcoVyKNgdkh+UU78qoOI0YUiIPg/1K7fTrdTWIh7C6oOTBQA41wrIkV46v6vB2J52GJQy/k8OH2Fl+8RF2v7+jzkbnZPSOV5bjk7fw+wepNJIfHh2Vre3b5X/+n/6X8t//4X8ng/mg3Lt/X+6e8ufJghX/UgJ7G9Q5kSEymnOfZmUxZj93AKlHXmzQfUIoh4GwH5nIWPEvZcgYg+ZOlYX7PPBIqNJjOBhIArOUT/qkq+tW8n34If19JK1l5PmZ9jqaHTGugQyVgwLqhn0ShsQr5WeaWdGdatef/mV9U8fKWnnHUi7azeHquiV08le6C4uPACD9N4DOcHRJquQJo89J/j8nkDu6eOaJ2rJ68kK52Yrow1FpWVlhBFEwKgZc/8wTcv3nOKoAur9WI98O3DnDLgw+aEb050ZKR5h06RupYZYXWno5t5CJLhhMfJt6WR1H+xVOz9Sp+HAHTxL4+FijuZc6ovPpXToYOEs2jqjZrzBqP3z3Yfn+f/sHfpzm+e6uH9yk1/Oc2JmWQnziioHHPwMieWzA2ZewdJS60kV7C+no5RXlFaB7lpN9yJhOrjx57Mb7G0WzvGKPxqM9Xp5pCcfxtpdTGA5hpY03UcOwMBj2MpSDo2t05Zieb8HxasYV+xzxul7rxXE3YXdYt1GE9S9w1WUE2/BrXLal25Nw+Ib0WzCJtCShHZMX9sDdx/6ZAR3i8RyU6ioswvjE9U6VKme6OohpzFC1UFQKjvs6NDd3wyVefGahP8tXGtH7fGLU5ajYPJKT+hAPkQ6CAQQt6METjngbcnUdH/UrJ6rzIA2dd0rHOj/zRzrY5zA7TKZ8j+BE5cEA1YHHp9bH76Mob5ZHw7XV8q1vfVuGuOrPVamg1KAPEnb2dsvamjbf4uVQQYowfdtofHqGvtQfz7tJl9BNNOnG8hAeDAojhe6HOUVf0AzhOkce6T3DKqzkmF++PuGDAs88MVP6/o6Mi30O38HmMGOMXqSU6hgb7yzlIQYGyWCCb+nkRb1yabbrlm6uW/Co+75NXuGQo/S51KMe0jCB9FtwWd1mIUOo1TZODPVW8X9u6JZtVFgonS4YAqLwXTwkGChb5ffj5fKjYKo0Cu90pApQrP7TKL1L3sAVUoKQGelTfjr4MSb8SOtUnXPjQpeclMUNzdNT1vMsgTAGHlfR/uYsPoUrLtE4PZtqhuFX35glrnwIwC+9MSLzURBOyPxQppZVbOqZWdhLrMmw+L4b3w5AFunDsHkOrupLRejPg0WVD84xM/ePmAU8SCBByzxO5QL6clMep5U+PKLj5ZscjxRxOMAeyU9CSDdO1nwCyIyqPHjI1Pu4mg/fxrbBytiYqXwzG2NCB6sr+daGeo0WBHsVoCJcVlX/QmdaFWMTpn9pEF3bVB9IH+OKsiot/QI/+SUz/V8HYIqQJ+Wkj7o/5Y6InF2sMIWjTiI+ChqFzcJwQZIkUUMIFQB/DwpYQPUTx9U451d5wY1VOkpE3kD47kzC5dllWtjMqmTeZMuomCym6iinLFm0j+B1aL6Ww7cFJiyX1IlJAm+M1JIzZWk30gw1kTEdi3dSdnd2/UsKe/s76oTiU8Z85mo4GFnelYwUw+H5M4zDr2rU77qhE7PvovLngELbLfFTNhkd5QuV5TQg8eEQ75/kmJ3Fi8GwVLMBVcPx0o0ZtR5R+6fsVRbuASGXPdfAhxE0t6SrLm1sHKvLR+e4ITtxenK3vUsu9R11iW5oB0gRuwo0AlDbCz4wuDOVfcqqf4Sznds2hmBuJ5AM+Rg7+pgfWuX/dYD+wKB24C5cR4lUWH+Up4nvHdDz9YUkijSOd40IYAeN7AJ3lAKkxWgJkkJLDNKhmn3kwtnlg6ND4IgXnUTmjQalg/G4y0j7Hi9taED1jIE6DD8hzwnT/sGBfwMUfenA/BYPPDTzOXsL0RmlP/nkM/NeatlzehYnb/QIlj/ek9RlEEqyJ1nWMo2vmHpfJZp/yJjTthVeNVDnVWcP3uKZ8IJftZY1EXZ5FMns5Hoh7M4XZWJplocElAvDYcnIvSaemzvW0pPZDCD/pSXpIR29NJMy7PdQiicduN8kO3W5ou2USc4SrmtUoG6zziOuc6lfdTlb6J8c9UE4ykSBW95rLvsc/OhQebv8QX6NoO55QrFUPmnt7BO0KJDfU6HVG3rE9YUMl3TJhB8IEeEn7igFqpzgDNxOlxsEquR2fE4fPvH4Itd0MdtgAOyLAqLT+LIYLVf8IUKWL/y8x0k5ODpUR+YZuHO7S+2DFgeLZTBc8a++PXn2TJ1SI/x0XAb8rujmelnf2PChBE8NIJh642MfnPAB6FFtwHXC/Ra/3KZOzZ6F7wnw5igfL8kNvw/WXGJmAdGlo81Z8WDoyw1RPm6fz7v5mwkyepdBYZJ79iAvWYffOpUi5MtHTnyTVnpZrpWzuqqXrKNs25DhZZTLEHGtc4c3z8txiL0Wpi1ZHlYHLdoz48UPDzTHoVO24a8PLEpHN2xUTCifSrdhqlhoV5B0QX85XcRHR6JVFCI/0N5P3KBApq3hlAWBzuR45CYfOuvC58FL0sUDnuTNSBo+svzIDpt3ha7UiZaZEaQfP9XBT44sq/OTjn3O6VizETdT1Tn54Af7m/jR3KmWagfCj7SHWCzbtzdlfCy/zj1juidGMTQTMIsofynOrITznosjZ+pFlZ73a+KlMBJSf1bYekNjn8KyLcuCjnwNCOOhSvDPz+JEjVnVhwPjM9e7PwVMXemiY1N4Bg+WaOzRhjIgPhlMncp+bPyuV4wFmly0o5NWXPlbl+qEe2klPNqK+o/0vv/U8VWZyNFlvaqzAaEj8c62ZigInvDfFjI/oMW/LlhkmWMFCSmDCOMcb7+dgShV4r4Sl6OhOyUbOt2ACntTiFwCSI/MNG7oDlenf31YCQOnk4XxTBmRz3krlHsgse/xt9a0/qfR7WupdK49AhtrNuIY/blvoHJH/syvSXMzlWUNv+62tqaZRvubjbUt8amzXKhDsm+QgfKA5vhEnVt+fj86DCLqmQKgIzMDnRA6inPxJo9Lr/r3qFx58QvvIIlGx+QonKRnPiBg5mEmZNaiE5aywst+GI4Ky+4KKm3jlwAVz4t6PFfHF0UZVHz/SXlShppZXFZAwQSC1qfGURzwGg1kqOUL9zItwXiN73yqobb9VwHSdX2n4m8KmedNeROnWpNgRkJp6wxqHjQ44VAA5nD6T6z+1Oj0RKWdVdC4+bKSCFfBN4Hl1/RVJjTrQXqHqxNkfoDxmoZOybKIZRAdS573PR69xcuzYzznBi+fkdreWvfJGfsFFaccHR+VFzsvbFwnJ/xEO0unC3/zjaeel7QkGwwH6rxnPkSIN0I5sVNGAn8Akc5LHVJN3vQLR0X5HozQRIrx+M2VXNyjgWYRrmK0tQFIFonJI26E1uftWOqxfJOeMlW3B3krgQ2F2SVosUzznksXS8r4lYjIKvJB0ZjZkG9HZFYxgeqot2gb+bQNugn38pgKlOc2m+Oo08RTjnFd+ORnn6xq3OsgdKl4Dad8/MRfB/DMpk1agsPyidPMIwY1qELBXCP6TXg09kuzj+ju4NoTJB3eHg/H5Roh1Wv0d71XGW2j4EiceNJpiC5e4GNXOiFLGRkNswVPRdPR+CKoEnab49OTA6vFr2bz+zZ3bm07D46bfSignsTSK35iREsgvsyJjuLBVHgmjvtBzDYsBzGOc/ZCvn/CqZWMTvmwnORsT2zurJfi4bAAfu9tHNaFIVEW2kLys1xe2mlfhBHaRESLB1LHnlGnkkE5eNkPXeNwIj5gwntGq8NlzUQYE0+ay5CsBzMwcrmpTGcmxwgTiFkvXV/HGXaris8zHbTaDtHaM2mQRXwtE+mAWSNKPyD85L0JkOu0KrPliJZygcQzPA8y35YXl3ol3oVrmnraxihpkiT0CRSwy3A6jEJIhJv4BOOmESAjS1Y4lOyBovdg9ion6VkpOARiVGk0yUUawnQ+ljTsVXgDkxugLL346Dmdj+fc+CnCye6zssILbeqESqS9D8u3aVkbrflVAPY8DMN03HhvR52N3q98MD780Uh7JS3fVtfWZZyTsnew7ycY6MwYb5SNg4i4kcmdfoxNwnxMzA8GQzeXaDlYALlnsLmIx3zooEKwtPTDrVpOcurG/mUkq1yRA+fRmyUllZ1oT6N9jZZo/MSKhgDjK1qaabxj0vOG1/eIqk4++lZc1mcMgFH3raPa9Uc16B9FggBvGAkRs2lEaeSSOtK1eNf29K83BniVVmm4JLGT28vr8RYy71Yv8HQZbunGa1o/EOATKFGI9M0yRaBUzjgJ8ISvjDAE0lkU3L3wEAw1FVK86b0sRQlIBRLO2cLHCJg+KyGG7My7/svCBEMUKB6AHMemXzMIb1WeqbOBb65ulv/8V39b/p//6/8uB0+/lHj2QtwXUcc+uyh7L/bKxupKubW96dHy+OjYp1Y8QY1R8DGOra1N583r0qsjLfUUQAYG6nd1PLVQCBmaYumMqKcVXxiR9OQ4m8d/MDA6m3nkU50s3fLdHOJ8T6fWGzohg6Ua39rmy6fv3L5Ttvlh38FQhsHzappZ1H7owQ9iDTULrUgvDIbf9mFPxR6IB1CNyag8KDA7OJ/QBeN11bpdjIRnIi2W/HJUP/Q6MDocaIDi3C9IJ/6+3QKgJST+8iD7anAPEjt+yA3ZmUfm2eaT0OrhpbEAvl6P6+k6mRVfdJzz7AuVifCT1oMSiUbHoRKDRwJrgWOtXwvktLi2AChXySGBxCZA9roZmcTi46DRKeWHCHN28nLk5nUAZht+YuOUJZs66ZGMgIc2f/STn5Wf/+Lj8uTJl2XnYNffgeY3bfx6tmYLvjvNUuvW9mr5zm+859M0L/sumMXOvLS7YEmmK779Fu/tTCZjL4eok3wOLmTKMDFOLeE42qak/iC74ryMkWO016YnnjW74L0bZiPeDo2lJ2OH7CXKVx3Pq/HJ3vu3bpVVLcdG2rvwg1j8XIl/kU59AAOKF+04Lh/5N1J9r0d6Sk3v7+DFeHhFwr/3wyiqOqaaccrMdZv5hgujJsrtg1HTDjb22sZOgwESDhoQIntZPbT94rr/JuAcmXVqXlymo0uTV+rRQmswQPJYTnXEtb5xmBSOZZtC3Rm7K1idQXJdOUm3S8MQXul02nbJAQSdLCq98pBRFpTMAcLEm1ckitMZjfKz0uhX8b4wpA15lIb4kxM6ujquOvCZDILvArzz8H45kKH8f3/5n8qJjGXv/Kr8xY8+LH//i0/Lc802dHo+0sHDnhxJM8uoT5WHD+6X7c2tkK3K4BVpZpm7t7fLcHVgI/HJl/KBzpEx+kDnwc58fTt+dEpOhnbFTUg5Tu0QjM++hWfSeKaOr4r693SkS5RNnVKdM+oW/nh7laXngqyKD7rbcDEUDEJ1yFdJ/ekr0eNt1VhuKigj45vbKouMxb8LJKmsNHyET4UKeF/KKwtZUHRI4biqD7Kgeb/jeHQTWclzH6OQfdqmMyycrpAT6cJHZN0/1bQiy4VceG4CS7V+VTaUTnboMQspM/15/C0t+QDjONHDeEhgpsAjEYaC3wsNF7SsUAS1hgct6JFRlx7cBQ0nAXJhjFUt6SCnjgCFUZefdIcveWxU4vOplIEQ6aCLX8s0jprpzCvqQPfu3i07u7vlhz/8e3fkk8lpOdLMtC8D+sGHj8qf/fWPyk9/9on2MUPPEkcHJ+XkuH4YQx17bX2lbG6sWhZlZDRn1EenGLVqxx2ok9KhrYf2Rct0cHVllYElGq8Z8GIdy0M6mE/W5OhY8PtEUEs0DBn/knIQ71E+XJRZyzDJlYVah/jtHwxBSzK1F+lZroH7TVhXDfd7ZFDoKF0xnCE6q60wNk8zHM8zGEg+afhHOrejNeQKWfhQ+R9tHXT9q+Ha3nAorgvX+FkcHmSBh+Tk6WXdBBELf+p3XX6bHlqfb+/P4smbafHbNKbLMSBFAjn3B5ihKhzk2cwjIQKimxM2OxwhWMCIFhniiFFYOM60ypeJPapVnAcbWfbwbBePuCg2Ohp8upDGXoHllj+EodmCF9SWF1njnGsfsK4ONSz/+PNflg8/+igMcnHFo6k373KThaXy/PSi/PkPf1b+4q9/bKMZjgZ+d+dgb7/s7uyIdujl3K2tbXfmTe0z2JBj1KhLNTHiTzWzjM/4rgEzzFgqaAbR3oXTNJU4NubKm3pQ1p6xcC69hHAh38tTG4/ky+imSp+G4ygZBL9bSh1iSMsyGgzISzDJYE/DxbE0xhUGqDah1vzMDzMT30mIGQmjip+Ul7hLzWIyLG7mEo4+oT9GMXDaS77lSQ6XQgpX45bLjuUBQnJz4Ix+gwwXOfAKVSyYw1nWZGl53xSsY803IWmpX8YnDZjFWyB8jR//3/+H/1NlpwKoDIEY4uc3VAgXhAQx2psGE/+MsHQJxQKUznUdYVeqpMZj7VUWEf4nnDypaOF0Qtb5bPbp4GI2v5dEMia0QyoGNb3QRv3syp+1PRkflb3nz8uOOjsc3Mvwhl2bYp5L4/mxKfd0lA97j3znxcsSqyEDPD4pa5L7nW+/W+7f2XYZeH/nXPsVmO7eu+ebke++c6/cU/zR0aHKHfqhp78JoPjoROjOwKJRXPUj61D9ySk/7jv5BqecT7dUzqgpvmDD4UF9Ts0DgvZXMiz2azzVzYtspFlVB995+rzcv3tHxrxqgyVL6ulceTB/8IQBT5Lf2uTDjSzn+F7DhQaDE89O3K9ikqdNp3KqjnKkZebyva2ypWUpeqAYvLkHjVkfFFwI7YzhE68YBR3njkW0k1H2aDnftBVO3QMtL/UYB1PiVTrqkbTQ4M+9yaugqmi9Es90bmvLDxnguNQFekubjW/pCYkv/cmf/Ns/dW41Zxeo57sGpCGaavSIxPNWoiEslCBSMlwJCAlZ4Dgbhaq5U0aOkZeHNo8Pj8vjx8/K0cmRv9/89PlOefbsednd58eYTsqp9i0n41PF8Z2AKeOuOvixf9vGL4lhLOqAV8sDGcyl9hrn2nfwHWblRdPWPN3BWRLIoGlgPkJIJ9CKqjx6/Lx88YTXtScyUj6ozsitvcXKikblhbK9ven9Eb9zCk88JaCOztMElEd6UI98B84W6G6jTuiOoXz9uIp43Sg0sDWTT2ytIwxM8typYSJeNE7h2KdwuMDeiKUkAw4DQtQxMqSCZiH4eUuWh1LJmlkJvTBc2mxVs6nbT3zkoV1YOdXsOVhf84BEp6Ew7vDCMByXD9z/MaxYtsbsIlw82RndhwyxrHX2SalxyZd9wTLEFdFBN1Z5XgdmqWwt+2xa8kqDyTjw2XALrYwOl9/tebih50piSFJ88gA2CldE+F1GojM64aidXKeSt0nyCWM0jGb+QSV1oDj1iYrlyeQPP/y4fPn4qQzhqOzsH5UXu/s2gAXuqWiZMVEjH2s0Pj7TqCxF6azPdl+UR+rofJzjQEa0z0fcpxPfAzmVkfnuuzr3eHyimYsbpbynwzs4WrqwbFHH8+gmd6WlGD/DsaD9zElZKR8/2S0//sVH5fOnL8pgONJMzOZ8RQZzZvl+kkD6UxscMsQmmzJJJmVzBaoeqATotIWMldmHOqQ+WXbaaOjDiuZfvJKAHCSAaSZR3WFkfvNVbDxCw56KmYYDB3NyACGZNjLNXL75qlmK7L33UkofYacucp4ZlR914v2OFAl19U90fAzdeA17lnGYuGxr8UsgUU4jOTFIRjk8eisEwA+EbPpFDDoZJk24AOhfFTIt/qzLPNt4G3mFli/0ClriCTYHKt4XiRinauLewRSZ0fiz8TDEyAka6S9ZqolKYzILnPAasPYmdJrdnYPy0Ueflp//8uNyoJmEG5rc/FtWpyAdL5DxjbSTo1N1fjWu+gYfOl9WJ6ezHWn5wfefWfSwlD89HHukjUfz5dRxcNwnYRT39880W+HOxwojk4RK7zJQLhuTRvPlkTIbWC6/TsBjOP45xvX1MuTJafHED/jGBpwve8aDnwwiLDXoJFQ0SwbVCRezCEfXWgbSsdRt3Ym9LKazeZkUfNZbfnRuaUalmvfS+TETkhfl8oEBs5Hv22AQ0VkTeMaNfQ17ochT9aW6YBnNjOMPIqrew/Bq58AB8iOIj27CyYW2rYNky0Nr00cyPOvcTywWvoA2rqV/HdDKTTxhni6z8ZkmjWpWBrD0b/7N/+5lG/SMUnYK05kQJMK1NNVgDOIEV83Szu6GNETtFKzbeamMZ69QkyeQn+3slt29A/OPtfF+4a/RHJbdg30/GsO7NPxWJ4/VhFHhhxz2Q7zJ6fsjMuLFwbJnTJZPfvJYBfT9FXVGTqy8RBKN0ZuZj45L16IDeZTmvo07riqC41p1Cu7v0Jn5VvVvfPCwbKyt+MnrzQ1+jvFcS8yh4oYqqbq3DM6DiSrYyxiKT0HdgRUwgWUXJBmyOr71o8MqL/TFUW8MMvC4Uyt/Hg3qOykyS9nUzBjVTf1OpRMflqdX09iqd/ITAzMYp3wbimdphwLMRuTNLMrzeZw+Uk+0M3leDZbKyta6DdJLutRfjuxprygcOaIzWckkxYv+vJrOYJn9JjumXyl3Efp9B5A4fSn7U9s5X0V/FZilsoGTZl6HB2bjEsdPvfHREXrOkK3+gEsKgwXhXBWp+PWwSa64wF2hhB2IkdKdRJ2bTn6mxsK4ztXQpzKGJ89elMcvnpfne7vl8dNnWqLtl32+pTbRMkuNeaQl1um50qlReaFrQjoti/ihW9545JQMI+JDFnxw4/SUr3ce+2Yf79vwQ008NsP30BZkBGyS6Yh+xVl6xsc3tNyh41Y981NOyI3jY5Ycl2V7c01GMypDdarN7XVRpjKclbK6iuHYdj0DSKwrFtsR4qNmP2SpPHziqHjf8BQjozdp6WShVyy9bNRuNMmRXmZCsHxkuVPqP3myDMMeFiWY+zg84Kniq9PjgmeZ2VGz5hLvIomPbzNEeo7Fp+Xg9MgDReiiWX48LlOFh6urNijazAZvnQTwoot8b+YtLQZJV4H/gUeMywEu55DTkxts1/H0070OguX1fEDk/zJv6tC6V9GSPg9Un5WZK3GYlSiWIgozujZxKNSt5x0Oi6RDshZnecYXcti3HJ6caOO/q834Ux8CnJxoVtGSg6eaT05ZapHVsjo6XVYKaaTy4yPqGIteqqlXSD6zi4+mlQcvgPm3bOj4asCp6N7XyGB5bmuk5d/G2nrZ3NwqI3UIllnsOWIZFJUSv4YQs4Ef5kSG5PFuDCMM4ZFmtnt37pS14ZpwfjYew2Eqp3PJHKSLT8zksx9iyRhGia+s6FzKSxXlzoiFWYeoQV1I4wiafQfyqAvRhVO9ftkKbtFXmOUQKp0pI0sx7umwpOTF70UZ4YLyh9kfbBSuPms5EiqfmZKnCpY9YO2fnJVdLYsfa+bfOxuX9Tt3rU10mNBDYmtYdPQjHoHBIMGioWMNe0as/AaRvV8iveno8TJOnWXfeh0EC+nkWQ5ezbdeQPpZptl8MzwPB3LWmeUB8ME8eIrsSBtKdWTf4QRDZlQew5vVCiLCeC2YI1KWDEvqrOxLXvCuv/Yu+weaXbS3ib0I3wvgleFYMrGGJw828fw4lR/e9FuZHDejgwohg2JZhhH47Ufxskbn1WX/KgAf5GBPI/k8/sKjMyzb1F0kkxudW2V7S4akzb9fD3CD17JK/1y6MQOgDw9S3r91x9bMc2zcW+G+CH2X7x3wro5Lrn+uZFe0BhA6ietDxsKyC3nKI2YgtGHjTv7B686NEGxCnd16KCxuDsXM4xGFTkkHY9SXTC8RlVOcBoKhTcqUj4GFZIW5/xN5InmgAeBMtOXtW+X9P/heefi93y3f+f4f+HeD4jQO0SGRLuIlHZkQ9ggQ4exAHQ84PnUqV5PIVwEQlngFeLv+VcO4myB4jCmdPKfHCzl5AemjWejT55d5vQp3uupDT7+lMSiopjOzCkb4Vx/BJxRphKRKPeRsw6EAm2uWSk+ePy38OC2K88tjnHxxtHtyximY1t1Kw/ea+bj5hmYHfr+GfQQjOh1oqpGYTsmsw917/4y7/NhjiM4d/JWRaHwfII5myZ/Gj6WZjMn3d8bq6OqUimOftK4lHd+P5lEb9l8cUavadNWuZmPlSPiqPLzH7+WMotKUBzIxeMtVGf0ksjtTVLR11dpJ6nXLJPqKdWJmWWC/RY1wKS939HgHiPs/C5cqB3lg+DLgkKt0wnmujo5Hec5Vh5QRWfChAvLolujqZZp82sonbNILDjo4xm8j0+CzMBqUBcq3Jn9lyUti68wlGVVLy+k7TZS1hhAriBDgfImXAzVLDQcOMeIg0XeCN/Iw3w0QfCHTMlgRIQ/feFyhe/jGrUwA+KvCs3hC0mdp3bItR4zWVU27cE5lNLxHVzUGswiqsl4+0czz+Bm/s3mkTnahmWdPSwSMZ6zGVQdR2tHqSllXo61rTzHS/oH7J1pzuJAp3x0QPencdCx16O5XnxWmQ9Gx6Be8zMZHLDAodOVpg9iU1/f7z7VMJH/tL7hHw7NmdEa/LMZplIyS3xxlH4TxsE945+E9xfMB9jUfHGDQXh5e8KF39lzhWKaxlERHLhufDZI6izKwQef3R21AwqfSg3iNTWp8YS5PXf6pyP7ouirWb2ubIpr4MFjnqeUZs1TfiagzMXFc7hSKoAIlU8Xy3gcGt5viiOLZt08/+bjsPnumPd1AdXYm1aMNDJLbdebawSk/hkobRIbJW//BW4NOJyz0ow0rXuNeolve6yF4yZ6Sogv/Xk6LjpJs33jNI/Ns8VdBGwc+GyZ9GA+XBWpkl0+nJftomIiDHgKsPSL8KAv3QfixWk7Qnjx95sf/OVbe2zv0T3Hwk+bsYZhd7t6+WzZW1zVjDNwBeH3Ad8Y5VZPP7MSXNrmj7lEe57A6VO3AqIAuMaLSYSgMx9y8a8OybkiPVWdVB1R/ht8NrxHea2/FsbxDHuXjfk+8dRk3DkeDUbmlJR6z4Kb2Tfx6QK7l6dQctVM7SmnZGCo6cvCAvs6H0R0uyfCSTRf5+SHQ2hmxNamNvTke46McLEn9oA2jtJda8ut+jU9VMdtxqBCfnGIZKG6VgfZCIeL8qLziCaOv80QXLEfpeeRpf2+v/PVf/XV58uiR93Ks9hTl/GIZFmWO/Uh0Fu97kJ3x5iGIrm4I/YvuAc1pRHN69JYPPeJCZs8T+E0QfJKvcpAVSycGfeh29aIM6Rt3vuFSTuIJbRg89Uq81S3jVKUCKUMmys9A0xPjBLjr+Tg81Ug6Wlv1hzOePX1a9nZ3ZTgnXmJxKHDGvRR1Bk6o7ty+7d+pyU/aerqmpQTxc4VCGGrVafzBcw4K6j0KMqOT2RjESMens5KOI2x3WOkSxqWZCEPQ8gw58HOPx3HWWRnRiLroSP6ugRLRwVnirGkgeO+dB2VFjcuLY9w/mZxpCal9CqnSyDyo6PIjNuqcfP+Ax2skzh2d3/pBX/IlP383Tfqwb2Lfo7Y0H+Vi5UzY7SDwBlvybXQ0EjQKJoS5Kean4pNMDJylrI1Q9YeOSm7D88GKZudzRfJDvwwgtCWGxr00Xv8ba+/2t3/7o/Lhh78sw+Wh82Nm79pdzrjTqyzCkR8dymq4Y0IUi8vgDm0V5aMRadALMdDhc1r/MziPNwDLavL3asl46JkX+QKhQeAdT+M8mFQAb40lfdw8iPQawd0IGAt+bbRuCaVwFLQKktCpOitvUDLjPHv+ohxw3Hx8bDZ1oXJ8fKT/l/61AJY+LJuYZVg6sYywPvrHIzLebCsLnPorDxQoCuPiPkQYmju55Hk5o0Y0naVLjYv1PHGRht7IT2iwJ0In1vP+nBSGWtNQtYzaqOJRWvEbq6OyorXOUEs5DJ5llmc4yef+B48E+TRQHZCSAv4gocrAjCDJsNabtyy11BjUiTokyy04VKNudGxMwhDgtNlwcAC1yV029Xg/QXGl5a2Xb8x2cvCAs2fy/o28ROXm7kTlfHFw7GNo3hOayp1q5jvW4LWnpTSvTPBbRItyP/mHn5Yf/PCHGniibCwhAfQJP/TpwnI2RgcoIwzygyIAp02ClxLl6B9dO/CvAvSd7ND+X/EWaNW8MlxzdVp802fSEk6X0OKzOnv+czYkogFEpIHVpbtOrYABHjbA/P4MG+4nTx7baHi9mFM0joV5Ro1Ts3cfPkCQnxRghMYYefGKzhHTfCy9upe4MCrxoF8UsvidfH4sl8MCZhT6mh909MYcfunIyEvjSTIjO2Vxx9Y+YZlvp8kg4KXTwcfRNJ3Z9168tKFg1MFFeXDvTtnaWNcSkxM6pZMS3cBirZhNZASqA+tZ644B6GJBsxCdmOw5MFBHF7c7IoZNgZht2fPwtEGclJG/agT7VDKkWTdy6nzFqIxfPn+uQeoUZeMzW8rn8PjQp4vxsp3ykV6eZXWdS+dffPZFefRspxyOT8qe3IvTw/Job6c83t8rV5IZR+vcEF4tn33+qPznv/obP6kxUPu5o6AzWlG/wvEYUHK0z3JFBxMnaQDYpWCG3SYWgYxo/4zD79J9jeA8q58XQF7gs/mbXssS5am8FQdaHIg9TzoR8N0BHDYSvsJTzzgb6pTD8mJnx8fRh4eHflByfV1LOBkUI/O9Bw+8nDk6PLI8Hy/LCuM7XpKvOmfphTwam+VcPD6jkVVLCS8rpLg7kEe42IvxS28e+THtqp+8mB3lYmZSHpKPYdAxiGOpFadykqX4eEBTuBi9jicPhXlAdWM0KHdvbVo+1QzAy03afFIhPlGlTm9jZ1+hkVq+RcqhF+WMMouv01V6i065yNedkBpW/m08MuVRMJfPD3tKt0+ePCt7J2flREvRM6X57MvH7uz8dpC/S62ZlZvLhwrvaqY/EM8vn70oP3/yvHys9vpc+5wnai/PK9I9Xj/QMk7LzMHKann6fLf8zd/8Fz+hzkCHcUeZQk8Gn6iXqD/j6GpnjkpveGs85RNW6X2c66biXyeQF0C+CcbRTdds/hlO19ISGIRbuGY8dEB8OmqEM45HVq7KcMQJ2aoqd68caRTkV5oxENYgmxqxgffef6jONFH8kWcMlk85+jJQKYcYIdUZkancpKAKJEcx80lm5y8KdB6n8Q1RKqTKoZO5fuRbR1DkVB9eOijH1FAxIAqPgWHYGHI8iIms+hyY5KCvy+J1lYy8Lvf8eVvSkkYOn8SeAV0KZj32UWQXdRZaMUIzEKCXKt+OTiuayoWhe+pxGSRBMwJpSYde5EH6icrPD5p8plnj0e5BeSEj+lJ1/9NPHpUne8dl5+ik7MiAnp4clS+0/zw+k+DBqIwl64UMbFfulHIrTK3T2dEXA+KAgjwG2ivyTe4f/PDHXo7z3B6zOypiSFEjwql6lz+cL3B0VjnAccICr8ZiXvhwcLe8xH+NQOkASTeefofXvPEz78Rbeuo3T0cNjjQWqKqyJuiYGPnkXHGq9NW1Na+9T05O/KAnjg7F/Rruu3CixqvPLG04UUNOzADxiVnukZzW+xT+WT91FBynPxias/SIyDYEI1IHk3x/l0wy6PRuSDVG+mDwiNXlwEHNUSIantJxmMCxNMbaGwFsvM68ucnza6Ny+7YMZ1nl1t4n68Md2p3aFRZLRznfBKVusAc6CHlhYNIzQDRlQIyNBwr1KV7fj9IggeMZO4/yThHKKufacaHQBkX1oD2O8EPleyDDO5HsR6fH5efPnsg9Kx++eC7j2i+7GjCm0p8yXlBAl1tLZhXAYwIKy0cPf2pHDptGpwUNIhJdfvTjn5THT566D6ysDjnf9qsfrkusB12pQyNytAVhO2hRZuoM3OkUwI9ZqgfSfFNAPaJl+h2uPEMf9L2ef0sHTzfLRz8NEOLOUimUr0+wUEYba9rbjDXTaI8zGctItOnU8oCHDLe0zGGdfKiRkOfOWCIhhg5vEK528WZ+QQ3FN9D4AVvTuT/hexHKXz4dnPQ8QUz+AJ2XpY6Uic7JvQ53XOSio5Krs5idTggvMwvLM4uImYInFfzgoxh9o1E03+CdnJT37t8t9+/wJIKWbOxBtIexXF9WT2EqFPmSRZwcM9uED3cgrxpNGLecK5GyoWOYgWXoQifyh25dIlas/FfeotjAyVgikOynKlT+ico+Ed9E4anq6lQKH0vDMWHNIhcqpw8lSCcZpLUsBLFUU5wHRdUxBnFh+eIS7jjV0YXq9e9+8KPyd//l78qXX3yplYIGRO0f0UxKu226OlE7ixJ4jfNgYtfTLbvSCQNtfAstbTbubQFN2yuX/Y6zToG30NLn8VxdXZX/H7DkWDXeoEv1AAAAAElFTkSuQmCC;" parent="1" vertex="1">
                    <mxGeometry x="1407" y="485.17" width="35.01" height="22.83" as="geometry"/>
                </mxCell>
                <mxCell id="202" value="" style="edgeStyle=segmentEdgeStyle;endArrow=classic;html=1;rounded=1;endSize=8;startSize=8;fontSize=12;fontColor=#FFFFFF;elbow=vertical;entryX=0;entryY=0.5;entryDx=0;entryDy=0;entryPerimeter=0;startArrow=classic;startFill=1;" parent="1" source="26" target="39" edge="1">
                    <mxGeometry width="50" height="50" relative="1" as="geometry">
                        <mxPoint x="1070" y="340" as="sourcePoint"/>
                        <mxPoint x="1120" y="290" as="targetPoint"/>
                        <Array as="points">
                            <mxPoint x="1000" y="260"/>
                            <mxPoint x="1110" y="260"/>
                            <mxPoint x="1110" y="180"/>
                        </Array>
                    </mxGeometry>
                </mxCell>
                <mxCell id="203" value="" style="edgeStyle=segmentEdgeStyle;endArrow=classic;html=1;curved=0;rounded=0;endSize=8;startSize=8;fontSize=12;fontColor=#FFFFFF;elbow=vertical;startArrow=classic;startFill=1;" parent="1" source="26" target="21" edge="1">
                    <mxGeometry width="50" height="50" relative="1" as="geometry">
                        <mxPoint x="1070" y="340" as="sourcePoint"/>
                        <mxPoint x="1120" y="290" as="targetPoint"/>
                    </mxGeometry>
                </mxCell>
                <mxCell id="188" value="" style="sketch=0;pointerEvents=1;shadow=0;dashed=0;html=1;strokeColor=none;fillColor=#505050;labelPosition=center;verticalLabelPosition=bottom;verticalAlign=top;outlineConnect=0;align=center;shape=mxgraph.office.servers.web_server_blue;rounded=1;strokeWidth=5;fontSize=12;fontColor=#FFFFFF;" parent="1" vertex="1">
                    <mxGeometry x="979.558052434457" y="551.0302695148732" width="33.52808988764045" height="38.03413855060891" as="geometry"/>
                </mxCell>
                <mxCell id="189" value="" style="sketch=0;pointerEvents=1;shadow=0;dashed=0;html=1;strokeColor=none;fillColor=#505050;labelPosition=center;verticalLabelPosition=bottom;verticalAlign=top;outlineConnect=0;align=center;shape=mxgraph.office.servers.web_server_orange;rounded=1;strokeWidth=5;fontSize=12;fontColor=#FFFFFF;" parent="1" vertex="1">
                    <mxGeometry x="979.558052434457" y="595.7370639515539" width="33.52808988764045" height="38.03413855060891" as="geometry"/>
                </mxCell>
                <mxCell id="190" value="" style="sketch=0;pointerEvents=1;shadow=0;dashed=0;html=1;strokeColor=none;fillColor=#505050;labelPosition=center;verticalLabelPosition=bottom;verticalAlign=top;outlineConnect=0;align=center;shape=mxgraph.office.servers.web_server_green;rounded=1;strokeWidth=5;fontSize=12;fontColor=#FFFFFF;" parent="1" vertex="1">
                    <mxGeometry x="1019.7219101123595" y="550.73" width="33.52808988764045" height="38.03413855060891" as="geometry"/>
                </mxCell>
                <mxCell id="191" value="" style="sketch=0;pointerEvents=1;shadow=0;dashed=0;html=1;strokeColor=none;fillColor=#505050;labelPosition=center;verticalLabelPosition=bottom;verticalAlign=top;outlineConnect=0;align=center;shape=mxgraph.office.servers.web_server_ghosted;rounded=1;strokeWidth=5;fontSize=12;fontColor=#FFFFFF;" parent="1" vertex="1">
                    <mxGeometry x="1019.7219101123595" y="595.7370639515539" width="33.35346441947565" height="38.03413855060891" as="geometry"/>
                </mxCell>
            </root>
        </mxGraphModel>
    </diagram>
</mxfile>